<svg width="500" height="500" viewBox="0 0 500 500" fill="none" xmlns="http://www.w3.org/2000/svg">
<circle cx="250" cy="250" r="250" fill="#E5BAFF"/>
<path d="M190 308.8C184.533 308.8 180.667 307.667 178.4 305.4C176.267 303.133 175.2 300.267 175.2 296.8V293.2C175.2 289.733 176.267 286.867 178.4 284.6C180.667 282.333 184.533 281.2 190 281.2C195.467 281.2 199.267 282.333 201.4 284.6C203.667 286.867 204.8 289.733 204.8 293.2V296.8C204.8 300.267 203.667 303.133 201.4 305.4C199.267 307.667 195.467 308.8 190 308.8ZM284.922 292.6L273.522 284.2L298.322 250.2L258.522 237L262.722 223.8L302.522 236.6V193.4H317.322V236.6L357.122 223.8L361.322 237L321.522 250.2L346.322 284.2L334.922 292.6L309.922 258.2L284.922 292.6Z" fill="#31274D"/>
</svg>
