<svg width="604" height="387" viewBox="0 0 604 387" fill="none" xmlns="http://www.w3.org/2000/svg">
<rect x="1.04439" y="1.04439" width="601.911" height="384.911" rx="19.8435" fill="#131920"/>
<path d="M36.632 178V162.28H39.416L41.456 168.688L42.152 171.136H42.248L42.944 168.688L44.984 162.28H47.768V178H45.56V170.92C45.56 170.52 45.576 170.056 45.608 169.528C45.64 168.984 45.672 168.424 45.704 167.848C45.752 167.272 45.792 166.728 45.824 166.216C45.872 165.704 45.912 165.264 45.944 164.896H45.872L44.888 168.28L42.896 173.824H41.408L39.44 168.28L38.48 164.896H38.408C38.456 165.264 38.496 165.704 38.528 166.216C38.576 166.728 38.616 167.272 38.648 167.848C38.68 168.424 38.712 168.984 38.744 169.528C38.776 170.056 38.792 170.52 38.792 170.92V178H36.632ZM52.0066 178V162.28H61.8946V164.296H54.4066V168.784H60.7426V170.8H54.4066V175.984H62.1346V178H52.0066ZM65.4133 178V162.28H68.1973L70.2373 168.688L70.9333 171.136H71.0293L71.7253 168.688L73.7653 162.28H76.5493V178H74.3413V170.92C74.3413 170.52 74.3573 170.056 74.3893 169.528C74.4213 168.984 74.4533 168.424 74.4853 167.848C74.5333 167.272 74.5733 166.728 74.6053 166.216C74.6533 165.704 74.6933 165.264 74.7253 164.896H74.6533L73.6693 168.28L71.6773 173.824H70.1893L68.2213 168.28L67.2613 164.896H67.1893C67.2373 165.264 67.2773 165.704 67.3092 166.216C67.3573 166.728 67.3973 167.272 67.4293 167.848C67.4613 168.424 67.4933 168.984 67.5253 169.528C67.5573 170.056 67.5733 170.52 67.5733 170.92V178H65.4133ZM174.644 182.224C173.012 180.912 171.716 179.344 170.756 177.52C169.812 175.696 169.34 173.632 169.34 171.328C169.34 169.024 169.812 166.96 170.756 165.136C171.716 163.296 173.012 161.728 174.644 160.432L175.964 161.56C174.396 162.92 173.244 164.392 172.508 165.976C171.772 167.56 171.404 169.344 171.404 171.328C171.404 173.312 171.772 175.096 172.508 176.68C173.244 178.248 174.396 179.72 175.964 181.096L174.644 182.224ZM399.038 182.224L397.718 181.096C399.286 179.72 400.438 178.248 401.174 176.68C401.91 175.096 402.278 173.312 402.278 171.328C402.278 169.344 401.91 167.56 401.174 165.976C400.438 164.392 399.286 162.92 397.718 161.56L399.038 160.432C400.67 161.728 401.958 163.296 402.902 165.136C403.862 166.96 404.342 169.024 404.342 171.328C404.342 173.632 403.862 175.696 402.902 177.52C401.958 179.344 400.67 180.912 399.038 182.224Z" fill="#00FFE0"/>
<path d="M85.3719 178.288C84.7639 178.288 84.2519 178.08 83.8359 177.664C83.4199 177.248 83.2119 176.712 83.2119 176.056C83.2119 175.4 83.4199 174.864 83.8359 174.448C84.2519 174.032 84.7639 173.824 85.3719 173.824C85.9959 173.824 86.5079 174.032 86.9079 174.448C87.3239 174.864 87.5319 175.4 87.5319 176.056C87.5319 176.712 87.3239 177.248 86.9079 177.664C86.5079 178.08 85.9959 178.288 85.3719 178.288Z" fill="white"/>
<path d="M95.1305 178L92.7305 166.264H95.0825L96.2825 172.72C96.3945 173.264 96.4905 173.808 96.5705 174.352C96.6505 174.896 96.7225 175.448 96.7865 176.008H96.8825C96.9625 175.448 97.0585 174.896 97.1705 174.352C97.2825 173.808 97.3945 173.264 97.5065 172.72L98.7785 167.224H100.891L102.139 172.72C102.251 173.264 102.371 173.808 102.499 174.352C102.643 174.896 102.747 175.448 102.811 176.008H102.907C103.003 175.448 103.083 174.896 103.147 174.352C103.211 173.808 103.291 173.264 103.387 172.72L104.587 166.264H106.795L104.467 178H101.515L100.363 172.864C100.267 172.432 100.171 171.928 100.075 171.352C99.9945 170.776 99.9065 170.128 99.8105 169.408H99.7145C99.6345 170.08 99.5465 170.704 99.4505 171.28C99.3705 171.84 99.2825 172.368 99.1865 172.864L98.0585 178H95.1305ZM110.265 178V166.264H112.233L112.425 169H112.497C113.105 168.04 113.849 167.296 114.729 166.768C115.609 166.24 116.569 165.976 117.609 165.976C118.057 165.976 118.465 166.016 118.833 166.096C119.201 166.176 119.561 166.296 119.913 166.456L119.385 168.496C118.985 168.352 118.641 168.256 118.353 168.208C118.065 168.144 117.697 168.112 117.249 168.112C116.401 168.112 115.585 168.352 114.801 168.832C114.017 169.312 113.297 170.144 112.641 171.328V178H110.265ZM128.688 178V168.184H123.432V166.264H131.064V178H128.688ZM129.672 163.984C129.16 163.984 128.736 163.832 128.4 163.528C128.064 163.208 127.896 162.792 127.896 162.28C127.896 161.768 128.064 161.36 128.4 161.056C128.736 160.736 129.16 160.576 129.672 160.576C130.184 160.576 130.608 160.736 130.944 161.056C131.28 161.36 131.448 161.768 131.448 162.28C131.448 162.792 131.28 163.208 130.944 163.528C130.608 163.832 130.184 163.984 129.672 163.984ZM145.166 178.288C143.982 178.288 143.046 178.08 142.358 177.664C141.686 177.248 141.206 176.672 140.918 175.936C140.63 175.2 140.486 174.344 140.486 173.368V168.184H137.27V166.408L140.582 166.264L140.894 162.568H142.862V166.264H148.406V168.184H142.862V173.368C142.862 174.024 142.95 174.584 143.126 175.048C143.302 175.496 143.598 175.832 144.014 176.056C144.43 176.264 144.99 176.368 145.694 176.368C146.222 176.368 146.702 176.328 147.134 176.248C147.566 176.152 147.982 176.032 148.382 175.888L148.862 177.616C148.334 177.792 147.766 177.944 147.158 178.072C146.566 178.216 145.902 178.288 145.166 178.288ZM158.045 178.288C156.861 178.288 155.781 178.048 154.805 177.568C153.845 177.088 153.085 176.384 152.525 175.456C151.965 174.528 151.685 173.416 151.685 172.12C151.685 170.84 151.965 169.744 152.525 168.832C153.101 167.92 153.845 167.216 154.757 166.72C155.669 166.224 156.645 165.976 157.685 165.976C158.837 165.976 159.813 166.216 160.613 166.696C161.413 167.16 162.021 167.808 162.437 168.64C162.869 169.456 163.085 170.416 163.085 171.52C163.085 171.76 163.077 172 163.061 172.24C163.045 172.464 163.021 172.656 162.989 172.816H153.341V171.064H161.501L160.973 171.64C160.973 170.376 160.685 169.432 160.109 168.808C159.533 168.168 158.749 167.848 157.757 167.848C157.069 167.848 156.437 168.016 155.861 168.352C155.301 168.672 154.853 169.152 154.517 169.792C154.181 170.416 154.013 171.192 154.013 172.12C154.013 173.08 154.197 173.88 154.565 174.52C154.949 175.144 155.461 175.616 156.101 175.936C156.757 176.256 157.509 176.416 158.357 176.416C159.013 176.416 159.613 176.328 160.157 176.152C160.701 175.96 161.237 175.704 161.765 175.384L162.605 176.896C162.013 177.296 161.333 177.632 160.565 177.904C159.797 178.16 158.957 178.288 158.045 178.288Z" fill="#F347E2"/>
<path d="M185.314 178.288C183.794 178.288 182.57 177.752 181.642 176.68C180.714 175.592 180.25 174.08 180.25 172.144C180.25 170.88 180.498 169.792 180.994 168.88C181.506 167.952 182.162 167.24 182.962 166.744C183.762 166.232 184.61 165.976 185.506 165.976C186.194 165.976 186.81 166.104 187.354 166.36C187.898 166.616 188.402 166.976 188.866 167.44H188.938L188.818 165.352V160.984H191.194V178H189.25L189.058 176.56H188.986C188.522 177.024 187.97 177.432 187.33 177.784C186.69 178.12 186.018 178.288 185.314 178.288ZM185.866 176.32C186.394 176.32 186.898 176.192 187.378 175.936C187.874 175.664 188.354 175.264 188.818 174.736V169.168C188.354 168.736 187.89 168.432 187.426 168.256C186.962 168.064 186.498 167.968 186.034 167.968C185.426 167.968 184.866 168.136 184.354 168.472C183.858 168.808 183.458 169.288 183.154 169.912C182.85 170.536 182.698 171.272 182.698 172.12C182.698 173.464 182.978 174.504 183.538 175.24C184.098 175.96 184.874 176.32 185.866 176.32ZM199.081 178.288C198.329 178.288 197.649 178.152 197.041 177.88C196.449 177.592 195.977 177.2 195.625 176.704C195.289 176.192 195.121 175.592 195.121 174.904C195.121 173.592 195.761 172.592 197.041 171.904C198.337 171.216 200.457 170.76 203.401 170.536C203.385 170.056 203.273 169.616 203.065 169.216C202.873 168.816 202.561 168.504 202.129 168.28C201.713 168.04 201.161 167.92 200.473 167.92C199.993 167.92 199.521 167.984 199.057 168.112C198.593 168.224 198.145 168.384 197.713 168.592C197.281 168.8 196.873 169.016 196.489 169.24L195.601 167.632C196.033 167.376 196.529 167.12 197.089 166.864C197.649 166.592 198.249 166.376 198.889 166.216C199.545 166.056 200.209 165.976 200.881 165.976C201.969 165.976 202.873 166.176 203.593 166.576C204.313 166.976 204.857 167.544 205.225 168.28C205.593 169.016 205.777 169.904 205.777 170.944V178H203.833L203.641 176.488H203.569C202.945 176.968 202.241 177.392 201.457 177.76C200.673 178.112 199.881 178.288 199.081 178.288ZM199.753 176.392C200.377 176.392 200.993 176.256 201.601 175.984C202.209 175.712 202.809 175.328 203.401 174.832V172.048C201.865 172.16 200.657 172.336 199.777 172.576C198.913 172.816 198.305 173.12 197.953 173.488C197.601 173.84 197.425 174.256 197.425 174.736C197.425 175.12 197.529 175.44 197.737 175.696C197.961 175.936 198.249 176.112 198.601 176.224C198.953 176.336 199.337 176.392 199.753 176.392ZM209.8 182.8V166.264H211.744L211.936 167.704H212.008C212.536 167.208 213.144 166.8 213.832 166.48C214.52 166.144 215.216 165.976 215.92 165.976C216.96 165.976 217.832 166.224 218.536 166.72C219.256 167.216 219.8 167.912 220.168 168.808C220.552 169.704 220.744 170.752 220.744 171.952C220.744 173.296 220.496 174.44 220 175.384C219.504 176.328 218.856 177.048 218.056 177.544C217.256 178.04 216.392 178.288 215.464 178.288C214.936 178.288 214.368 178.16 213.76 177.904C213.168 177.648 212.624 177.296 212.128 176.848H212.056L212.176 178.96V182.8H209.8ZM215.008 176.32C215.632 176.32 216.192 176.152 216.688 175.816C217.184 175.48 217.576 174.992 217.864 174.352C218.152 173.696 218.296 172.904 218.296 171.976C218.296 171.16 218.184 170.456 217.96 169.864C217.752 169.256 217.432 168.792 217 168.472C216.568 168.136 215.992 167.968 215.272 167.968C214.792 167.968 214.288 168.096 213.76 168.352C213.232 168.592 212.704 168.992 212.176 169.552V175.096C212.672 175.528 213.176 175.84 213.688 176.032C214.2 176.224 214.64 176.32 215.008 176.32ZM224.19 182.8V166.264H226.134L226.326 167.704H226.398C226.926 167.208 227.534 166.8 228.222 166.48C228.91 166.144 229.606 165.976 230.31 165.976C231.35 165.976 232.222 166.224 232.926 166.72C233.646 167.216 234.19 167.912 234.558 168.808C234.942 169.704 235.134 170.752 235.134 171.952C235.134 173.296 234.886 174.44 234.39 175.384C233.894 176.328 233.246 177.048 232.446 177.544C231.646 178.04 230.782 178.288 229.854 178.288C229.326 178.288 228.758 178.16 228.15 177.904C227.558 177.648 227.014 177.296 226.518 176.848H226.446L226.566 178.96V182.8H224.19ZM229.398 176.32C230.022 176.32 230.582 176.152 231.078 175.816C231.574 175.48 231.966 174.992 232.254 174.352C232.542 173.696 232.686 172.904 232.686 171.976C232.686 171.16 232.574 170.456 232.35 169.864C232.142 169.256 231.822 168.792 231.39 168.472C230.958 168.136 230.382 167.968 229.662 167.968C229.182 167.968 228.678 168.096 228.15 168.352C227.622 168.592 227.094 168.992 226.566 169.552V175.096C227.062 175.528 227.566 175.84 228.078 176.032C228.59 176.224 229.03 176.32 229.398 176.32ZM243.669 178.288C243.061 178.288 242.549 178.08 242.133 177.664C241.717 177.248 241.509 176.712 241.509 176.056C241.509 175.4 241.717 174.864 242.133 174.448C242.549 174.032 243.061 173.824 243.669 173.824C244.293 173.824 244.805 174.032 245.205 174.448C245.621 174.864 245.829 175.4 245.829 176.056C245.829 176.712 245.621 177.248 245.205 177.664C244.805 178.08 244.293 178.288 243.669 178.288ZM258.203 178V168.184H252.947V166.264H260.579V178H258.203ZM259.187 163.984C258.675 163.984 258.251 163.832 257.915 163.528C257.579 163.208 257.411 162.792 257.411 162.28C257.411 161.768 257.579 161.36 257.915 161.056C258.251 160.736 258.675 160.576 259.187 160.576C259.699 160.576 260.123 160.736 260.459 161.056C260.795 161.36 260.963 161.768 260.963 162.28C260.963 162.792 260.795 163.208 260.459 163.528C260.123 163.832 259.699 163.984 259.187 163.984ZM271.658 178.288C270.138 178.288 268.914 177.752 267.986 176.68C267.058 175.592 266.594 174.08 266.594 172.144C266.594 170.88 266.842 169.792 267.338 168.88C267.85 167.952 268.506 167.24 269.306 166.744C270.106 166.232 270.954 165.976 271.85 165.976C272.538 165.976 273.154 166.104 273.698 166.36C274.242 166.616 274.746 166.976 275.21 167.44H275.282L275.162 165.352V160.984H277.538V178H275.594L275.402 176.56H275.33C274.866 177.024 274.314 177.432 273.674 177.784C273.034 178.12 272.362 178.288 271.658 178.288ZM272.21 176.32C272.738 176.32 273.242 176.192 273.722 175.936C274.218 175.664 274.698 175.264 275.162 174.736V169.168C274.698 168.736 274.234 168.432 273.77 168.256C273.306 168.064 272.842 167.968 272.378 167.968C271.77 167.968 271.21 168.136 270.698 168.472C270.202 168.808 269.802 169.288 269.498 169.912C269.194 170.536 269.042 171.272 269.042 172.12C269.042 173.464 269.322 174.504 269.882 175.24C270.442 175.96 271.218 176.32 272.21 176.32ZM284.921 183.136L284.273 181.672C285.313 181.24 286.081 180.696 286.577 180.04C287.089 179.384 287.337 178.592 287.321 177.664L286.937 175.288L288.329 177.328C288.121 177.536 287.897 177.68 287.657 177.76C287.417 177.84 287.177 177.88 286.937 177.88C286.553 177.88 286.201 177.808 285.881 177.664C285.577 177.504 285.329 177.28 285.137 176.992C284.961 176.688 284.873 176.328 284.873 175.912C284.873 175.272 285.081 174.784 285.497 174.448C285.913 174.096 286.409 173.92 286.985 173.92C287.753 173.92 288.337 174.216 288.737 174.808C289.137 175.4 289.337 176.216 289.337 177.256C289.337 178.696 288.945 179.912 288.161 180.904C287.393 181.896 286.313 182.64 284.921 183.136ZM315.766 178V168.184H310.51V166.264H318.142V178H315.766ZM316.75 163.984C316.238 163.984 315.814 163.832 315.478 163.528C315.142 163.208 314.974 162.792 314.974 162.28C314.974 161.768 315.142 161.36 315.478 161.056C315.814 160.736 316.238 160.576 316.75 160.576C317.262 160.576 317.686 160.736 318.022 161.056C318.358 161.36 318.526 161.768 318.526 162.28C318.526 162.792 318.358 163.208 318.022 163.528C317.686 163.832 317.262 163.984 316.75 163.984ZM324.925 178V166.264H326.869L327.061 168.16H327.157C327.749 167.552 328.389 167.04 329.077 166.624C329.765 166.192 330.565 165.976 331.477 165.976C332.837 165.976 333.837 166.392 334.477 167.224C335.133 168.04 335.461 169.208 335.461 170.728V178H333.085V171.04C333.085 170.016 332.893 169.264 332.509 168.784C332.141 168.288 331.517 168.04 330.637 168.04C330.013 168.04 329.453 168.2 328.957 168.52C328.461 168.824 327.909 169.288 327.301 169.912V178H324.925ZM339.315 182.8V166.264H341.259L341.451 167.704H341.523C342.051 167.208 342.659 166.8 343.347 166.48C344.035 166.144 344.731 165.976 345.435 165.976C346.475 165.976 347.347 166.224 348.051 166.72C348.771 167.216 349.315 167.912 349.683 168.808C350.067 169.704 350.259 170.752 350.259 171.952C350.259 173.296 350.011 174.44 349.515 175.384C349.019 176.328 348.371 177.048 347.571 177.544C346.771 178.04 345.907 178.288 344.979 178.288C344.451 178.288 343.883 178.16 343.275 177.904C342.683 177.648 342.139 177.296 341.643 176.848H341.571L341.691 178.96V182.8H339.315ZM344.523 176.32C345.147 176.32 345.707 176.152 346.203 175.816C346.699 175.48 347.091 174.992 347.379 174.352C347.667 173.696 347.811 172.904 347.811 171.976C347.811 171.16 347.699 170.456 347.475 169.864C347.267 169.256 346.947 168.792 346.515 168.472C346.083 168.136 345.507 167.968 344.787 167.968C344.307 167.968 343.803 168.096 343.275 168.352C342.747 168.592 342.219 168.992 341.691 169.552V175.096C342.187 175.528 342.691 175.84 343.203 176.032C343.715 176.224 344.155 176.32 344.523 176.32ZM357.354 178.288C355.978 178.288 354.962 177.88 354.306 177.064C353.666 176.248 353.346 175.072 353.346 173.536V166.264H355.722V173.224C355.722 174.264 355.906 175.032 356.274 175.528C356.658 176.008 357.29 176.248 358.17 176.248C358.794 176.248 359.354 176.096 359.85 175.792C360.346 175.488 360.882 174.992 361.458 174.304V166.264H363.834V178H361.89L361.698 176.056H361.602C361.026 176.712 360.394 177.248 359.706 177.664C359.034 178.08 358.25 178.288 357.354 178.288ZM375.416 178.288C374.232 178.288 373.296 178.08 372.608 177.664C371.936 177.248 371.456 176.672 371.168 175.936C370.88 175.2 370.736 174.344 370.736 173.368V168.184H367.52V166.408L370.832 166.264L371.144 162.568H373.112V166.264H378.656V168.184H373.112V173.368C373.112 174.024 373.2 174.584 373.376 175.048C373.552 175.496 373.848 175.832 374.264 176.056C374.68 176.264 375.24 176.368 375.944 176.368C376.472 176.368 376.952 176.328 377.384 176.248C377.816 176.152 378.232 176.032 378.632 175.888L379.112 177.616C378.584 177.792 378.016 177.944 377.408 178.072C376.816 178.216 376.152 178.288 375.416 178.288ZM387.719 178.288C386.615 178.288 385.559 178.104 384.551 177.736C383.543 177.368 382.687 176.944 381.983 176.464L383.039 174.928C383.727 175.408 384.471 175.784 385.271 176.056C386.087 176.328 387.007 176.464 388.031 176.464C388.927 176.464 389.591 176.304 390.023 175.984C390.471 175.664 390.695 175.288 390.695 174.856C390.695 174.648 390.647 174.456 390.551 174.28C390.471 174.104 390.311 173.944 390.071 173.8C389.847 173.64 389.503 173.488 389.039 173.344C388.591 173.2 387.999 173.048 387.263 172.888C385.711 172.568 384.559 172.128 383.807 171.568C383.071 171.008 382.703 170.288 382.703 169.408C382.703 168.416 383.127 167.6 383.975 166.96C384.839 166.304 386.087 165.976 387.719 165.976C388.647 165.976 389.527 166.136 390.359 166.456C391.207 166.76 391.927 167.112 392.519 167.512L391.415 169C390.855 168.632 390.239 168.344 389.567 168.136C388.911 167.912 388.223 167.8 387.503 167.8C386.911 167.8 386.439 167.872 386.087 168.016C385.735 168.144 385.479 168.32 385.319 168.544C385.159 168.768 385.079 169.016 385.079 169.288C385.079 169.736 385.327 170.088 385.823 170.344C386.335 170.584 387.159 170.824 388.295 171.064C389.575 171.336 390.559 171.64 391.247 171.976C391.951 172.312 392.431 172.704 392.687 173.152C392.959 173.584 393.095 174.104 393.095 174.712C393.095 175.368 392.887 175.968 392.471 176.512C392.055 177.056 391.447 177.488 390.647 177.808C389.863 178.128 388.887 178.288 387.719 178.288Z" fill="#EAE6D8" fill-opacity="0.7"/>
<path d="M416.356 169.912C415.748 169.912 415.236 169.704 414.82 169.288C414.404 168.872 414.196 168.336 414.196 167.68C414.196 167.024 414.404 166.488 414.82 166.072C415.236 165.656 415.748 165.448 416.356 165.448C416.98 165.448 417.492 165.656 417.892 166.072C418.308 166.488 418.516 167.024 418.516 167.68C418.516 168.336 418.308 168.872 417.892 169.288C417.492 169.704 416.98 169.912 416.356 169.912ZM414.436 183.136L413.788 181.672C414.828 181.24 415.596 180.696 416.092 180.04C416.604 179.384 416.852 178.592 416.836 177.664L416.452 175.288L417.844 177.328C417.636 177.536 417.412 177.68 417.172 177.76C416.932 177.84 416.692 177.88 416.452 177.88C416.068 177.88 415.716 177.808 415.396 177.664C415.092 177.504 414.844 177.28 414.652 176.992C414.476 176.688 414.388 176.328 414.388 175.912C414.388 175.272 414.596 174.784 415.012 174.448C415.428 174.096 415.924 173.92 416.5 173.92C417.268 173.92 417.852 174.216 418.252 174.808C418.652 175.4 418.852 176.216 418.852 177.256C418.852 178.696 418.46 179.912 417.676 180.904C416.908 181.896 415.828 182.64 414.436 183.136Z" fill="#EAE6D8"/>
<path d="M36.632 220V204.28H39.416L41.456 210.688L42.152 213.136H42.248L42.944 210.688L44.984 204.28H47.768V220H45.56V212.92C45.56 212.52 45.576 212.056 45.608 211.528C45.64 210.984 45.672 210.424 45.704 209.848C45.752 209.272 45.792 208.728 45.824 208.216C45.872 207.704 45.912 207.264 45.944 206.896H45.872L44.888 210.28L42.896 215.824H41.408L39.44 210.28L38.48 206.896H38.408C38.456 207.264 38.496 207.704 38.528 208.216C38.576 208.728 38.616 209.272 38.648 209.848C38.68 210.424 38.712 210.984 38.744 211.528C38.776 212.056 38.792 212.52 38.792 212.92V220H36.632ZM52.0066 220V204.28H61.8946V206.296H54.4066V210.784H60.7426V212.8H54.4066V217.984H62.1346V220H52.0066ZM65.4133 220V204.28H68.1973L70.2373 210.688L70.9333 213.136H71.0293L71.7253 210.688L73.7653 204.28H76.5493V220H74.3413V212.92C74.3413 212.52 74.3573 212.056 74.3893 211.528C74.4213 210.984 74.4533 210.424 74.4853 209.848C74.5333 209.272 74.5733 208.728 74.6053 208.216C74.6533 207.704 74.6933 207.264 74.7253 206.896H74.6533L73.6693 210.28L71.6773 215.824H70.1893L68.2213 210.28L67.2613 206.896H67.1893C67.2373 207.264 67.2773 207.704 67.3092 208.216C67.3573 208.728 67.3973 209.272 67.4293 209.848C67.4613 210.424 67.4933 210.984 67.5253 211.528C67.5573 212.056 67.5733 212.52 67.5733 212.92V220H65.4133Z" fill="#00FFE0"/>
<path d="M85.3719 220.288C84.7639 220.288 84.2519 220.08 83.8359 219.664C83.4199 219.248 83.2119 218.712 83.2119 218.056C83.2119 217.4 83.4199 216.864 83.8359 216.448C84.2519 216.032 84.7639 215.824 85.3719 215.824C85.9959 215.824 86.5079 216.032 86.9079 216.448C87.3239 216.864 87.5319 217.4 87.5319 218.056C87.5319 218.712 87.3239 219.248 86.9079 219.664C86.5079 220.08 85.9959 220.288 85.3719 220.288Z" fill="white"/>
<path d="M95.8745 220V208.264H97.8425L98.0345 211H98.1065C98.7145 210.04 99.4585 209.296 100.339 208.768C101.219 208.24 102.179 207.976 103.219 207.976C103.667 207.976 104.075 208.016 104.443 208.096C104.811 208.176 105.171 208.296 105.523 208.456L104.995 210.496C104.595 210.352 104.251 210.256 103.963 210.208C103.675 210.144 103.307 210.112 102.859 210.112C102.011 210.112 101.195 210.352 100.411 210.832C99.6265 211.312 98.9065 212.144 98.2505 213.328V220H95.8745ZM114.873 220.288C113.689 220.288 112.609 220.048 111.633 219.568C110.673 219.088 109.913 218.384 109.353 217.456C108.793 216.528 108.513 215.416 108.513 214.12C108.513 212.84 108.793 211.744 109.353 210.832C109.929 209.92 110.673 209.216 111.585 208.72C112.497 208.224 113.473 207.976 114.513 207.976C115.665 207.976 116.641 208.216 117.441 208.696C118.241 209.16 118.849 209.808 119.265 210.64C119.697 211.456 119.913 212.416 119.913 213.52C119.913 213.76 119.905 214 119.889 214.24C119.873 214.464 119.849 214.656 119.817 214.816H110.169V213.064H118.329L117.801 213.64C117.801 212.376 117.513 211.432 116.937 210.808C116.361 210.168 115.577 209.848 114.585 209.848C113.897 209.848 113.265 210.016 112.689 210.352C112.129 210.672 111.681 211.152 111.345 211.792C111.009 212.416 110.841 213.192 110.841 214.12C110.841 215.08 111.025 215.88 111.393 216.52C111.777 217.144 112.289 217.616 112.929 217.936C113.585 218.256 114.337 218.416 115.185 218.416C115.841 218.416 116.441 218.328 116.985 218.152C117.529 217.96 118.065 217.704 118.593 217.384L119.433 218.896C118.841 219.296 118.161 219.632 117.393 219.904C116.625 220.16 115.785 220.288 114.873 220.288ZM127.128 220.288C126.376 220.288 125.696 220.152 125.088 219.88C124.496 219.592 124.024 219.2 123.672 218.704C123.336 218.192 123.168 217.592 123.168 216.904C123.168 215.592 123.808 214.592 125.088 213.904C126.384 213.216 128.504 212.76 131.448 212.536C131.432 212.056 131.32 211.616 131.112 211.216C130.92 210.816 130.608 210.504 130.176 210.28C129.76 210.04 129.208 209.92 128.52 209.92C128.04 209.92 127.568 209.984 127.104 210.112C126.64 210.224 126.192 210.384 125.76 210.592C125.328 210.8 124.92 211.016 124.536 211.24L123.648 209.632C124.08 209.376 124.576 209.12 125.136 208.864C125.696 208.592 126.296 208.376 126.936 208.216C127.592 208.056 128.256 207.976 128.928 207.976C130.016 207.976 130.92 208.176 131.64 208.576C132.36 208.976 132.904 209.544 133.272 210.28C133.64 211.016 133.824 211.904 133.824 212.944V220H131.88L131.688 218.488H131.616C130.992 218.968 130.288 219.392 129.504 219.76C128.72 220.112 127.928 220.288 127.128 220.288ZM127.8 218.392C128.424 218.392 129.04 218.256 129.648 217.984C130.256 217.712 130.856 217.328 131.448 216.832V214.048C129.912 214.16 128.704 214.336 127.824 214.576C126.96 214.816 126.352 215.12 126 215.488C125.648 215.84 125.472 216.256 125.472 216.736C125.472 217.12 125.576 217.44 125.784 217.696C126.008 217.936 126.296 218.112 126.648 218.224C127 218.336 127.384 218.392 127.8 218.392ZM142.142 220.288C140.622 220.288 139.398 219.752 138.47 218.68C137.542 217.592 137.078 216.08 137.078 214.144C137.078 212.88 137.326 211.792 137.822 210.88C138.334 209.952 138.99 209.24 139.79 208.744C140.59 208.232 141.438 207.976 142.334 207.976C143.022 207.976 143.638 208.104 144.182 208.36C144.726 208.616 145.23 208.976 145.694 209.44H145.766L145.646 207.352V202.984H148.022V220H146.078L145.886 218.56H145.814C145.35 219.024 144.798 219.432 144.158 219.784C143.518 220.12 142.846 220.288 142.142 220.288ZM142.694 218.32C143.222 218.32 143.726 218.192 144.206 217.936C144.702 217.664 145.182 217.264 145.646 216.736V211.168C145.182 210.736 144.718 210.432 144.254 210.256C143.79 210.064 143.326 209.968 142.862 209.968C142.254 209.968 141.694 210.136 141.182 210.472C140.686 210.808 140.286 211.288 139.982 211.912C139.678 212.536 139.526 213.272 139.526 214.12C139.526 215.464 139.806 216.504 140.366 217.24C140.926 217.96 141.702 218.32 142.694 218.32Z" fill="#F347E2"/>
<path d="M160.253 224.224C158.621 222.912 157.325 221.344 156.365 219.52C155.421 217.696 154.949 215.632 154.949 213.328C154.949 211.024 155.421 208.96 156.365 207.136C157.325 205.296 158.621 203.728 160.253 202.432L161.573 203.56C160.005 204.92 158.853 206.392 158.117 207.976C157.381 209.56 157.013 211.344 157.013 213.328C157.013 215.312 157.381 217.096 158.117 218.68C158.853 220.248 160.005 221.72 161.573 223.096L160.253 224.224ZM170.924 220.288C169.404 220.288 168.18 219.752 167.252 218.68C166.324 217.592 165.86 216.08 165.86 214.144C165.86 212.88 166.108 211.792 166.604 210.88C167.116 209.952 167.772 209.24 168.572 208.744C169.372 208.232 170.22 207.976 171.116 207.976C171.804 207.976 172.42 208.104 172.964 208.36C173.508 208.616 174.012 208.976 174.476 209.44H174.548L174.428 207.352V202.984H176.804V220H174.86L174.668 218.56H174.596C174.132 219.024 173.58 219.432 172.94 219.784C172.3 220.12 171.628 220.288 170.924 220.288ZM171.476 218.32C172.004 218.32 172.508 218.192 172.988 217.936C173.484 217.664 173.964 217.264 174.428 216.736V211.168C173.964 210.736 173.5 210.432 173.036 210.256C172.572 210.064 172.108 209.968 171.644 209.968C171.036 209.968 170.476 210.136 169.964 210.472C169.468 210.808 169.068 211.288 168.764 211.912C168.46 212.536 168.308 213.272 168.308 214.12C168.308 215.464 168.588 216.504 169.148 217.24C169.708 217.96 170.484 218.32 171.476 218.32ZM184.69 220.288C183.938 220.288 183.258 220.152 182.65 219.88C182.058 219.592 181.586 219.2 181.234 218.704C180.898 218.192 180.73 217.592 180.73 216.904C180.73 215.592 181.37 214.592 182.65 213.904C183.946 213.216 186.066 212.76 189.01 212.536C188.994 212.056 188.882 211.616 188.674 211.216C188.482 210.816 188.17 210.504 187.738 210.28C187.322 210.04 186.77 209.92 186.082 209.92C185.602 209.92 185.13 209.984 184.666 210.112C184.202 210.224 183.754 210.384 183.322 210.592C182.89 210.8 182.482 211.016 182.098 211.24L181.21 209.632C181.642 209.376 182.138 209.12 182.698 208.864C183.258 208.592 183.858 208.376 184.498 208.216C185.154 208.056 185.818 207.976 186.49 207.976C187.578 207.976 188.482 208.176 189.202 208.576C189.922 208.976 190.466 209.544 190.834 210.28C191.202 211.016 191.386 211.904 191.386 212.944V220H189.442L189.25 218.488H189.178C188.554 218.968 187.85 219.392 187.066 219.76C186.282 220.112 185.49 220.288 184.69 220.288ZM185.362 218.392C185.986 218.392 186.602 218.256 187.21 217.984C187.818 217.712 188.418 217.328 189.01 216.832V214.048C187.474 214.16 186.266 214.336 185.386 214.576C184.522 214.816 183.914 215.12 183.562 215.488C183.21 215.84 183.034 216.256 183.034 216.736C183.034 217.12 183.138 217.44 183.346 217.696C183.57 217.936 183.858 218.112 184.21 218.224C184.562 218.336 184.946 218.392 185.362 218.392ZM195.409 224.8V208.264H197.353L197.545 209.704H197.617C198.145 209.208 198.753 208.8 199.441 208.48C200.129 208.144 200.825 207.976 201.529 207.976C202.569 207.976 203.441 208.224 204.145 208.72C204.865 209.216 205.409 209.912 205.777 210.808C206.161 211.704 206.353 212.752 206.353 213.952C206.353 215.296 206.105 216.44 205.609 217.384C205.113 218.328 204.465 219.048 203.665 219.544C202.865 220.04 202.001 220.288 201.073 220.288C200.545 220.288 199.977 220.16 199.369 219.904C198.777 219.648 198.233 219.296 197.737 218.848H197.665L197.785 220.96V224.8H195.409ZM200.617 218.32C201.241 218.32 201.801 218.152 202.297 217.816C202.793 217.48 203.185 216.992 203.473 216.352C203.761 215.696 203.905 214.904 203.905 213.976C203.905 213.16 203.793 212.456 203.569 211.864C203.361 211.256 203.041 210.792 202.609 210.472C202.177 210.136 201.601 209.968 200.881 209.968C200.401 209.968 199.897 210.096 199.369 210.352C198.841 210.592 198.313 210.992 197.785 211.552V217.096C198.281 217.528 198.785 217.84 199.297 218.032C199.809 218.224 200.249 218.32 200.617 218.32ZM209.8 224.8V208.264H211.744L211.936 209.704H212.008C212.536 209.208 213.144 208.8 213.832 208.48C214.52 208.144 215.216 207.976 215.92 207.976C216.96 207.976 217.832 208.224 218.536 208.72C219.256 209.216 219.8 209.912 220.168 210.808C220.552 211.704 220.744 212.752 220.744 213.952C220.744 215.296 220.496 216.44 220 217.384C219.504 218.328 218.856 219.048 218.056 219.544C217.256 220.04 216.392 220.288 215.464 220.288C214.936 220.288 214.368 220.16 213.76 219.904C213.168 219.648 212.624 219.296 212.128 218.848H212.056L212.176 220.96V224.8H209.8ZM215.008 218.32C215.632 218.32 216.192 218.152 216.688 217.816C217.184 217.48 217.576 216.992 217.864 216.352C218.152 215.696 218.296 214.904 218.296 213.976C218.296 213.16 218.184 212.456 217.96 211.864C217.752 211.256 217.432 210.792 217 210.472C216.568 210.136 215.992 209.968 215.272 209.968C214.792 209.968 214.288 210.096 213.76 210.352C213.232 210.592 212.704 210.992 212.176 211.552V217.096C212.672 217.528 213.176 217.84 213.688 218.032C214.2 218.224 214.64 218.32 215.008 218.32ZM229.278 220.288C228.67 220.288 228.158 220.08 227.742 219.664C227.326 219.248 227.118 218.712 227.118 218.056C227.118 217.4 227.326 216.864 227.742 216.448C228.158 216.032 228.67 215.824 229.278 215.824C229.902 215.824 230.414 216.032 230.814 216.448C231.23 216.864 231.438 217.4 231.438 218.056C231.438 218.712 231.23 219.248 230.814 219.664C230.414 220.08 229.902 220.288 229.278 220.288ZM243.813 220V210.184H238.557V208.264H246.189V220H243.813ZM244.797 205.984C244.285 205.984 243.861 205.832 243.525 205.528C243.189 205.208 243.021 204.792 243.021 204.28C243.021 203.768 243.189 203.36 243.525 203.056C243.861 202.736 244.285 202.576 244.797 202.576C245.309 202.576 245.733 202.736 246.069 203.056C246.405 203.36 246.573 203.768 246.573 204.28C246.573 204.792 246.405 205.208 246.069 205.528C245.733 205.832 245.309 205.984 244.797 205.984ZM257.267 220.288C255.747 220.288 254.523 219.752 253.595 218.68C252.667 217.592 252.203 216.08 252.203 214.144C252.203 212.88 252.451 211.792 252.947 210.88C253.459 209.952 254.115 209.24 254.915 208.744C255.715 208.232 256.563 207.976 257.459 207.976C258.147 207.976 258.763 208.104 259.307 208.36C259.851 208.616 260.355 208.976 260.819 209.44H260.891L260.771 207.352V202.984H263.147V220H261.203L261.011 218.56H260.939C260.475 219.024 259.923 219.432 259.283 219.784C258.643 220.12 257.971 220.288 257.267 220.288ZM257.819 218.32C258.347 218.32 258.851 218.192 259.331 217.936C259.827 217.664 260.307 217.264 260.771 216.736V211.168C260.307 210.736 259.843 210.432 259.379 210.256C258.915 210.064 258.451 209.968 257.987 209.968C257.379 209.968 256.819 210.136 256.307 210.472C255.811 210.808 255.411 211.288 255.107 211.912C254.803 212.536 254.651 213.272 254.651 214.12C254.651 215.464 254.931 216.504 255.491 217.24C256.051 217.96 256.827 218.32 257.819 218.32Z" fill="#EAE6D8" fill-opacity="0.7"/>
<path d="M269.522 224.224L268.202 223.096C269.77 221.72 270.922 220.248 271.658 218.68C272.394 217.096 272.762 215.312 272.762 213.328C272.762 211.344 272.394 209.56 271.658 207.976C270.922 206.392 269.77 204.92 268.202 203.56L269.522 202.432C271.154 203.728 272.442 205.296 273.386 207.136C274.346 208.96 274.826 211.024 274.826 213.328C274.826 215.632 274.346 217.696 273.386 219.52C272.442 221.344 271.154 222.912 269.522 224.224ZM286.841 211.912C286.233 211.912 285.721 211.704 285.305 211.288C284.889 210.872 284.681 210.336 284.681 209.68C284.681 209.024 284.889 208.488 285.305 208.072C285.721 207.656 286.233 207.448 286.841 207.448C287.465 207.448 287.977 207.656 288.377 208.072C288.793 208.488 289.001 209.024 289.001 209.68C289.001 210.336 288.793 210.872 288.377 211.288C287.977 211.704 287.465 211.912 286.841 211.912ZM284.921 225.136L284.273 223.672C285.313 223.24 286.081 222.696 286.577 222.04C287.089 221.384 287.337 220.592 287.321 219.664L286.937 217.288L288.329 219.328C288.121 219.536 287.897 219.68 287.657 219.76C287.417 219.84 287.177 219.88 286.937 219.88C286.553 219.88 286.201 219.808 285.881 219.664C285.577 219.504 285.329 219.28 285.137 218.992C284.961 218.688 284.873 218.328 284.873 217.912C284.873 217.272 285.081 216.784 285.497 216.448C285.913 216.096 286.409 215.92 286.985 215.92C287.753 215.92 288.337 216.216 288.737 216.808C289.137 217.4 289.337 218.216 289.337 219.256C289.337 220.696 288.945 221.912 288.161 222.904C287.393 223.896 286.313 224.64 284.921 225.136Z" fill="#EAE6D8"/>
<path d="M276.52 31.504V40H273.992V31.504H276.52ZM275.24 27.024C275.677 27.024 276.035 27.1627 276.312 27.44C276.6 27.7067 276.744 28.048 276.744 28.464C276.744 28.88 276.6 29.2267 276.312 29.504C276.035 29.7707 275.677 29.904 275.24 29.904C274.803 29.904 274.445 29.7707 274.168 29.504C273.891 29.2267 273.752 28.88 273.752 28.464C273.752 28.048 273.891 27.7067 274.168 27.44C274.445 27.1627 274.803 27.024 275.24 27.024ZM283.484 31.232C284.22 31.232 284.796 31.456 285.212 31.904C285.628 32.352 285.836 32.9813 285.836 33.792V40H283.308V34.224C283.308 33.7973 283.238 33.504 283.1 33.344C282.972 33.1733 282.774 33.088 282.508 33.088C281.996 33.088 281.505 33.456 281.036 34.192V40H278.508V31.504H280.716L280.892 32.512C281.254 32.0853 281.644 31.7653 282.06 31.552C282.486 31.3387 282.961 31.232 283.484 31.232ZM295.358 28.128V40H293.118L292.99 39.008C292.393 39.8507 291.587 40.272 290.574 40.272C289.518 40.272 288.713 39.8667 288.158 39.056C287.614 38.2453 287.342 37.136 287.342 35.728C287.342 34.864 287.486 34.0907 287.774 33.408C288.062 32.7253 288.467 32.192 288.99 31.808C289.523 31.424 290.131 31.232 290.814 31.232C291.625 31.232 292.297 31.4987 292.83 32.032V27.856L295.358 28.128ZM291.358 38.416C291.945 38.416 292.435 38.096 292.83 37.456V33.792C292.627 33.5467 292.419 33.3653 292.206 33.248C292.003 33.1307 291.769 33.072 291.502 33.072C291.033 33.072 290.659 33.2907 290.382 33.728C290.105 34.1653 289.966 34.8373 289.966 35.744C289.966 36.736 290.083 37.4293 290.318 37.824C290.563 38.2187 290.91 38.416 291.358 38.416ZM304.744 35.584C304.744 35.936 304.728 36.24 304.696 36.496H299.432C299.517 37.2107 299.72 37.712 300.04 38C300.36 38.288 300.802 38.432 301.368 38.432C301.709 38.432 302.04 38.3733 302.36 38.256C302.68 38.128 303.026 37.936 303.4 37.68L304.44 39.088C303.448 39.8773 302.344 40.272 301.128 40.272C299.752 40.272 298.696 39.8667 297.96 39.056C297.224 38.2453 296.856 37.1573 296.856 35.792C296.856 34.928 297.01 34.1547 297.32 33.472C297.629 32.7787 298.082 32.2347 298.68 31.84C299.277 31.4347 299.992 31.232 300.824 31.232C302.05 31.232 303.01 31.616 303.704 32.384C304.397 33.152 304.744 34.2187 304.744 35.584ZM302.264 34.864C302.242 33.5627 301.784 32.912 300.888 32.912C300.45 32.912 300.109 33.072 299.864 33.392C299.629 33.712 299.485 34.24 299.432 34.976H302.264V34.864ZM310.585 35.456L313.321 40H310.457L308.985 36.816L307.545 40H304.793L307.529 35.536L305.065 31.504H307.897L309.081 34.224L310.217 31.504H312.905L310.585 35.456ZM315.201 37.376C315.596 37.376 315.932 37.52 316.209 37.808C316.497 38.0853 316.641 38.4213 316.641 38.816C316.641 39.2213 316.497 39.568 316.209 39.856C315.932 40.1333 315.596 40.272 315.201 40.272C314.796 40.272 314.449 40.1333 314.161 39.856C313.884 39.568 313.745 39.2213 313.745 38.816C313.745 38.4213 313.884 38.0853 314.161 37.808C314.449 37.52 314.796 37.376 315.201 37.376ZM320.629 39.04C320.629 39.9253 320.485 40.656 320.197 41.232C319.92 41.808 319.536 42.2667 319.045 42.608C318.565 42.96 317.957 43.2693 317.221 43.536L316.373 41.696C316.789 41.504 317.114 41.3173 317.349 41.136C317.584 40.9547 317.765 40.7093 317.893 40.4C318.032 40.1013 318.101 39.7013 318.101 39.2V31.504H320.629V39.04ZM319.365 27.024C319.802 27.024 320.16 27.1627 320.437 27.44C320.725 27.7067 320.869 28.048 320.869 28.464C320.869 28.88 320.725 29.2267 320.437 29.504C320.16 29.7707 319.802 29.904 319.365 29.904C318.928 29.904 318.57 29.7707 318.293 29.504C318.016 29.2267 317.877 28.88 317.877 28.464C317.877 28.048 318.016 27.7067 318.293 27.44C318.57 27.1627 318.928 27.024 319.365 27.024ZM325.609 31.232C326.217 31.232 326.788 31.3227 327.321 31.504C327.854 31.6853 328.324 31.9413 328.729 32.272L327.801 33.696C327.108 33.2587 326.409 33.04 325.705 33.04C325.374 33.04 325.118 33.0987 324.937 33.216C324.766 33.3227 324.681 33.4773 324.681 33.68C324.681 33.84 324.718 33.9733 324.793 34.08C324.878 34.176 325.044 34.2773 325.289 34.384C325.534 34.4907 325.913 34.6187 326.425 34.768C327.31 35.024 327.966 35.36 328.393 35.776C328.83 36.1813 329.049 36.7467 329.049 37.472C329.049 38.048 328.884 38.5493 328.553 38.976C328.222 39.392 327.769 39.712 327.193 39.936C326.617 40.16 325.977 40.272 325.273 40.272C324.558 40.272 323.892 40.16 323.273 39.936C322.665 39.712 322.148 39.4027 321.721 39.008L322.953 37.632C323.668 38.1867 324.42 38.464 325.209 38.464C325.593 38.464 325.892 38.3947 326.105 38.256C326.329 38.1173 326.441 37.92 326.441 37.664C326.441 37.4613 326.398 37.3013 326.313 37.184C326.228 37.0667 326.062 36.96 325.817 36.864C325.572 36.7573 325.182 36.6293 324.649 36.48C323.806 36.2347 323.177 35.8933 322.761 35.456C322.345 35.0187 322.137 34.4747 322.137 33.824C322.137 33.3333 322.276 32.896 322.553 32.512C322.841 32.1173 323.246 31.808 323.769 31.584C324.302 31.3493 324.916 31.232 325.609 31.232Z" fill="#A3A5A8"/>
<circle cx="30.9205" cy="34.2991" r="7.5" fill="#ED6A5E"/>
<circle cx="56.8738" cy="34.2991" r="7.5" fill="#F4BF4F"/>
<circle cx="82.8271" cy="34.2991" r="7.5" fill="#61C554"/>
<path d="M41.28 137.288C40.064 137.288 38.968 137.048 37.992 136.568C37.016 136.088 36.24 135.392 35.664 134.48C35.104 133.552 34.824 132.44 34.824 131.144C34.824 129.848 35.128 128.744 35.736 127.832C36.344 126.904 37.144 126.2 38.136 125.72C39.144 125.224 40.24 124.976 41.424 124.976C42.384 124.976 43.224 125.144 43.944 125.48C44.664 125.8 45.264 126.192 45.744 126.656L44.592 128.168C44.112 127.784 43.624 127.488 43.128 127.28C42.648 127.056 42.12 126.944 41.544 126.944C40.712 126.944 39.968 127.12 39.312 127.472C38.672 127.824 38.168 128.32 37.8 128.96C37.448 129.584 37.272 130.312 37.272 131.144C37.272 131.992 37.448 132.728 37.8 133.352C38.152 133.976 38.64 134.464 39.264 134.816C39.904 135.168 40.64 135.344 41.472 135.344C42.176 135.344 42.816 135.208 43.392 134.936C43.968 134.664 44.488 134.336 44.952 133.952L45.984 135.488C45.328 136.064 44.592 136.512 43.776 136.832C42.976 137.136 42.144 137.288 41.28 137.288ZM54.5906 137.288C53.5666 137.288 52.6066 137.048 51.7106 136.568C50.8306 136.088 50.1106 135.392 49.5506 134.48C49.0066 133.552 48.7346 132.44 48.7346 131.144C48.7346 129.848 49.0066 128.744 49.5506 127.832C50.1106 126.904 50.8306 126.2 51.7106 125.72C52.6066 125.224 53.5666 124.976 54.5906 124.976C55.6146 124.976 56.5666 125.224 57.4466 125.72C58.3426 126.2 59.0626 126.904 59.6066 127.832C60.1666 128.744 60.4466 129.848 60.4466 131.144C60.4466 132.44 60.1666 133.552 59.6066 134.48C59.0626 135.392 58.3426 136.088 57.4466 136.568C56.5666 137.048 55.6146 137.288 54.5906 137.288ZM54.5906 135.344C55.2786 135.344 55.8786 135.168 56.3906 134.816C56.9026 134.464 57.2946 133.976 57.5666 133.352C57.8546 132.728 57.9986 131.992 57.9986 131.144C57.9986 130.312 57.8546 129.584 57.5666 128.96C57.2946 128.32 56.9026 127.824 56.3906 127.472C55.8786 127.12 55.2786 126.944 54.5906 126.944C53.9026 126.944 53.3026 127.12 52.7906 127.472C52.2786 127.824 51.8786 128.32 51.5906 128.96C51.3186 129.584 51.1826 130.312 51.1826 131.144C51.1826 131.992 51.3186 132.728 51.5906 133.352C51.8786 133.976 52.2786 134.464 52.7906 134.816C53.3026 135.168 53.9026 135.344 54.5906 135.344ZM63.8933 137V125.264H65.8373L66.0293 127.16H66.1253C66.7173 126.552 67.3573 126.04 68.0453 125.624C68.7333 125.192 69.5333 124.976 70.4453 124.976C71.8053 124.976 72.8053 125.392 73.4453 126.224C74.1013 127.04 74.4293 128.208 74.4293 129.728V137H72.0533V130.04C72.0533 129.016 71.8613 128.264 71.4773 127.784C71.1093 127.288 70.4853 127.04 69.6053 127.04C68.9813 127.04 68.4213 127.2 67.9253 127.52C67.4293 127.824 66.8773 128.288 66.2693 128.912V137H63.8933ZM83.5159 137.288C82.4119 137.288 81.3559 137.104 80.3479 136.736C79.3399 136.368 78.4839 135.944 77.7799 135.464L78.8359 133.928C79.5239 134.408 80.2679 134.784 81.0679 135.056C81.8839 135.328 82.8039 135.464 83.8279 135.464C84.7239 135.464 85.3879 135.304 85.8199 134.984C86.2679 134.664 86.4919 134.288 86.4919 133.856C86.4919 133.648 86.4439 133.456 86.3479 133.28C86.2679 133.104 86.1079 132.944 85.8679 132.8C85.6439 132.64 85.2999 132.488 84.8359 132.344C84.3879 132.2 83.7959 132.048 83.0599 131.888C81.5079 131.568 80.3559 131.128 79.6039 130.568C78.8679 130.008 78.4999 129.288 78.4999 128.408C78.4999 127.416 78.9239 126.6 79.7719 125.96C80.6359 125.304 81.8839 124.976 83.5159 124.976C84.4439 124.976 85.3239 125.136 86.1559 125.456C87.0039 125.76 87.7239 126.112 88.3159 126.512L87.2119 128C86.6519 127.632 86.0359 127.344 85.3639 127.136C84.7079 126.912 84.0199 126.8 83.2999 126.8C82.7079 126.8 82.2359 126.872 81.8839 127.016C81.5319 127.144 81.2759 127.32 81.1159 127.544C80.9559 127.768 80.8759 128.016 80.8759 128.288C80.8759 128.736 81.1239 129.088 81.6199 129.344C82.1319 129.584 82.9559 129.824 84.0919 130.064C85.3719 130.336 86.3559 130.64 87.0439 130.976C87.7479 131.312 88.2279 131.704 88.4839 132.152C88.7559 132.584 88.8919 133.104 88.8919 133.712C88.8919 134.368 88.6839 134.968 88.2679 135.512C87.8519 136.056 87.2439 136.488 86.4439 136.808C85.6599 137.128 84.6839 137.288 83.5159 137.288ZM99.9945 137.288C98.8105 137.288 97.8745 137.08 97.1865 136.664C96.5145 136.248 96.0345 135.672 95.7465 134.936C95.4585 134.2 95.3145 133.344 95.3145 132.368V127.184H92.0985V125.408L95.4105 125.264L95.7225 121.568H97.6905V125.264H103.234V127.184H97.6905V132.368C97.6905 133.024 97.7785 133.584 97.9545 134.048C98.1305 134.496 98.4265 134.832 98.8425 135.056C99.2585 135.264 99.8185 135.368 100.523 135.368C101.051 135.368 101.531 135.328 101.963 135.248C102.395 135.152 102.811 135.032 103.211 134.888L103.691 136.616C103.163 136.792 102.595 136.944 101.987 137.072C101.395 137.216 100.731 137.288 99.9945 137.288Z" fill="#6CFD5A"/>
<path d="M125.752 137.288C124.232 137.288 123.008 136.752 122.08 135.68C121.152 134.592 120.688 133.08 120.688 131.144C120.688 129.88 120.936 128.792 121.432 127.88C121.944 126.952 122.6 126.24 123.4 125.744C124.2 125.232 125.048 124.976 125.944 124.976C126.632 124.976 127.248 125.104 127.792 125.36C128.336 125.616 128.84 125.976 129.304 126.44H129.376L129.256 124.352V119.984H131.632V137H129.688L129.496 135.56H129.424C128.96 136.024 128.408 136.432 127.768 136.784C127.128 137.12 126.456 137.288 125.752 137.288ZM126.304 135.32C126.832 135.32 127.336 135.192 127.816 134.936C128.312 134.664 128.792 134.264 129.256 133.736V128.168C128.792 127.736 128.328 127.432 127.864 127.256C127.4 127.064 126.936 126.968 126.472 126.968C125.864 126.968 125.304 127.136 124.792 127.472C124.296 127.808 123.896 128.288 123.592 128.912C123.288 129.536 123.136 130.272 123.136 131.12C123.136 132.464 123.416 133.504 123.976 134.24C124.536 134.96 125.312 135.32 126.304 135.32ZM139.518 137.288C138.766 137.288 138.086 137.152 137.478 136.88C136.886 136.592 136.414 136.2 136.062 135.704C135.726 135.192 135.558 134.592 135.558 133.904C135.558 132.592 136.198 131.592 137.478 130.904C138.774 130.216 140.894 129.76 143.838 129.536C143.822 129.056 143.71 128.616 143.502 128.216C143.31 127.816 142.998 127.504 142.566 127.28C142.15 127.04 141.598 126.92 140.91 126.92C140.43 126.92 139.958 126.984 139.494 127.112C139.03 127.224 138.582 127.384 138.15 127.592C137.718 127.8 137.31 128.016 136.926 128.24L136.038 126.632C136.47 126.376 136.966 126.12 137.526 125.864C138.086 125.592 138.686 125.376 139.326 125.216C139.982 125.056 140.646 124.976 141.318 124.976C142.406 124.976 143.31 125.176 144.03 125.576C144.75 125.976 145.294 126.544 145.662 127.28C146.03 128.016 146.214 128.904 146.214 129.944V137H144.27L144.078 135.488H144.006C143.382 135.968 142.678 136.392 141.894 136.76C141.11 137.112 140.318 137.288 139.518 137.288ZM140.19 135.392C140.814 135.392 141.43 135.256 142.038 134.984C142.646 134.712 143.246 134.328 143.838 133.832V131.048C142.302 131.16 141.094 131.336 140.214 131.576C139.35 131.816 138.742 132.12 138.39 132.488C138.038 132.84 137.862 133.256 137.862 133.736C137.862 134.12 137.966 134.44 138.174 134.696C138.398 134.936 138.686 135.112 139.038 135.224C139.39 135.336 139.774 135.392 140.19 135.392ZM150.237 141.8V125.264H152.181L152.373 126.704H152.445C152.973 126.208 153.581 125.8 154.269 125.48C154.957 125.144 155.653 124.976 156.357 124.976C157.397 124.976 158.269 125.224 158.973 125.72C159.693 126.216 160.237 126.912 160.605 127.808C160.989 128.704 161.181 129.752 161.181 130.952C161.181 132.296 160.933 133.44 160.437 134.384C159.941 135.328 159.293 136.048 158.493 136.544C157.693 137.04 156.829 137.288 155.901 137.288C155.373 137.288 154.805 137.16 154.197 136.904C153.605 136.648 153.061 136.296 152.565 135.848H152.493L152.613 137.96V141.8H150.237ZM155.445 135.32C156.069 135.32 156.629 135.152 157.125 134.816C157.621 134.48 158.013 133.992 158.301 133.352C158.589 132.696 158.733 131.904 158.733 130.976C158.733 130.16 158.621 129.456 158.397 128.864C158.189 128.256 157.869 127.792 157.437 127.472C157.005 127.136 156.429 126.968 155.709 126.968C155.229 126.968 154.725 127.096 154.197 127.352C153.669 127.592 153.141 127.992 152.613 128.552V134.096C153.109 134.528 153.613 134.84 154.125 135.032C154.637 135.224 155.077 135.32 155.445 135.32ZM164.628 141.8V125.264H166.572L166.764 126.704H166.836C167.364 126.208 167.972 125.8 168.66 125.48C169.348 125.144 170.044 124.976 170.748 124.976C171.788 124.976 172.66 125.224 173.364 125.72C174.084 126.216 174.628 126.912 174.996 127.808C175.38 128.704 175.572 129.752 175.572 130.952C175.572 132.296 175.324 133.44 174.828 134.384C174.332 135.328 173.684 136.048 172.884 136.544C172.084 137.04 171.22 137.288 170.292 137.288C169.764 137.288 169.196 137.16 168.588 136.904C167.996 136.648 167.452 136.296 166.956 135.848H166.884L167.004 137.96V141.8H164.628ZM169.836 135.32C170.46 135.32 171.02 135.152 171.516 134.816C172.012 134.48 172.404 133.992 172.692 133.352C172.98 132.696 173.124 131.904 173.124 130.976C173.124 130.16 173.012 129.456 172.788 128.864C172.58 128.256 172.26 127.792 171.828 127.472C171.396 127.136 170.82 126.968 170.1 126.968C169.62 126.968 169.116 127.096 168.588 127.352C168.06 127.592 167.532 127.992 167.004 128.552V134.096C167.5 134.528 168.004 134.84 168.516 135.032C169.028 135.224 169.468 135.32 169.836 135.32ZM221.71 137V121.28H224.494L226.534 127.688L227.23 130.136H227.326L228.022 127.688L230.062 121.28H232.846V137H230.638V129.92C230.638 129.52 230.654 129.056 230.686 128.528C230.718 127.984 230.75 127.424 230.782 126.848C230.83 126.272 230.87 125.728 230.902 125.216C230.95 124.704 230.99 124.264 231.022 123.896H230.95L229.966 127.28L227.974 132.824H226.486L224.518 127.28L223.558 123.896H223.486C223.534 124.264 223.574 124.704 223.606 125.216C223.654 125.728 223.694 126.272 223.726 126.848C223.758 127.424 223.79 127.984 223.822 128.528C223.854 129.056 223.87 129.52 223.87 129.92V137H221.71ZM237.085 137V121.28H246.973V123.296H239.485V127.784H245.821V129.8H239.485V134.984H247.213V137H237.085ZM250.491 137V121.28H253.275L255.315 127.688L256.011 130.136H256.107L256.803 127.688L258.843 121.28H261.627V137H259.419V129.92C259.419 129.52 259.435 129.056 259.467 128.528C259.499 127.984 259.531 127.424 259.563 126.848C259.611 126.272 259.651 125.728 259.683 125.216C259.731 124.704 259.771 124.264 259.803 123.896H259.731L258.747 127.28L256.755 132.824H255.267L253.299 127.28L252.339 123.896H252.267C252.315 124.264 252.355 124.704 252.387 125.216C252.435 125.728 252.475 126.272 252.507 126.848C252.539 127.424 252.571 127.984 252.603 128.528C252.635 129.056 252.651 129.52 252.651 129.92V137H250.491ZM374.112 141.224C372.48 139.912 371.184 138.344 370.224 136.52C369.28 134.696 368.808 132.632 368.808 130.328C368.808 128.024 369.28 125.96 370.224 124.136C371.184 122.296 372.48 120.728 374.112 119.432L375.432 120.56C373.864 121.92 372.712 123.392 371.976 124.976C371.24 126.56 370.872 128.344 370.872 130.328C370.872 132.312 371.24 134.096 371.976 135.68C372.712 137.248 373.864 138.72 375.432 140.096L374.112 141.224ZM540.944 141.224L539.624 140.096C541.192 138.72 542.344 137.248 543.08 135.68C543.816 134.096 544.184 132.312 544.184 130.328C544.184 128.344 543.816 126.56 543.08 124.976C542.344 123.392 541.192 121.92 539.624 120.56L540.944 119.432C542.576 120.728 543.864 122.296 544.808 124.136C545.768 125.96 546.248 128.024 546.248 130.328C546.248 132.632 545.768 134.696 544.808 136.52C543.864 138.344 542.576 139.912 540.944 141.224Z" fill="#00FFE0"/>
<path d="M193.241 127.304V125.576H203.753V127.304H193.241ZM193.241 132.584V130.856H203.753V132.584H193.241ZM270.45 137.288C269.842 137.288 269.33 137.08 268.914 136.664C268.498 136.248 268.29 135.712 268.29 135.056C268.29 134.4 268.498 133.864 268.914 133.448C269.33 133.032 269.842 132.824 270.45 132.824C271.074 132.824 271.586 133.032 271.986 133.448C272.402 133.864 272.61 134.4 272.61 135.056C272.61 135.712 272.402 136.248 271.986 136.664C271.586 137.08 271.074 137.288 270.45 137.288ZM558.263 128.912C557.655 128.912 557.143 128.704 556.727 128.288C556.311 127.872 556.103 127.336 556.103 126.68C556.103 126.024 556.311 125.488 556.727 125.072C557.143 124.656 557.655 124.448 558.263 124.448C558.887 124.448 559.399 124.656 559.799 125.072C560.215 125.488 560.423 126.024 560.423 126.68C560.423 127.336 560.215 127.872 559.799 128.288C559.399 128.704 558.887 128.912 558.263 128.912ZM556.343 142.136L555.695 140.672C556.735 140.24 557.503 139.696 557.999 139.04C558.511 138.384 558.759 137.592 558.743 136.664L558.359 134.288L559.751 136.328C559.543 136.536 559.319 136.68 559.079 136.76C558.839 136.84 558.599 136.88 558.359 136.88C557.975 136.88 557.623 136.808 557.303 136.664C556.999 136.504 556.751 136.28 556.559 135.992C556.383 135.688 556.295 135.328 556.295 134.912C556.295 134.272 556.503 133.784 556.919 133.448C557.335 133.096 557.831 132.92 558.407 132.92C559.175 132.92 559.759 133.216 560.159 133.808C560.559 134.4 560.759 135.216 560.759 136.256C560.759 137.696 560.367 138.912 559.583 139.904C558.815 140.896 557.735 141.64 556.343 142.136Z" fill="white"/>
<path d="M284.049 137.288C282.529 137.288 281.305 136.752 280.377 135.68C279.449 134.592 278.985 133.08 278.985 131.144C278.985 129.88 279.233 128.792 279.729 127.88C280.241 126.952 280.897 126.24 281.697 125.744C282.497 125.232 283.345 124.976 284.241 124.976C284.929 124.976 285.545 125.104 286.089 125.36C286.633 125.616 287.137 125.976 287.601 126.44H287.673L287.553 124.352V119.984H289.929V137H287.985L287.793 135.56H287.721C287.257 136.024 286.705 136.432 286.065 136.784C285.425 137.12 284.753 137.288 284.049 137.288ZM284.601 135.32C285.129 135.32 285.633 135.192 286.113 134.936C286.609 134.664 287.089 134.264 287.553 133.736V128.168C287.089 127.736 286.625 127.432 286.161 127.256C285.697 127.064 285.233 126.968 284.769 126.968C284.161 126.968 283.601 127.136 283.089 127.472C282.593 127.808 282.193 128.288 281.889 128.912C281.585 129.536 281.433 130.272 281.433 131.12C281.433 132.464 281.713 133.504 282.273 134.24C282.833 134.96 283.609 135.32 284.601 135.32ZM299.951 137.288C298.767 137.288 297.687 137.048 296.711 136.568C295.751 136.088 294.991 135.384 294.431 134.456C293.871 133.528 293.591 132.416 293.591 131.12C293.591 129.84 293.871 128.744 294.431 127.832C295.007 126.92 295.751 126.216 296.663 125.72C297.575 125.224 298.551 124.976 299.591 124.976C300.743 124.976 301.719 125.216 302.519 125.696C303.319 126.16 303.927 126.808 304.343 127.64C304.775 128.456 304.991 129.416 304.991 130.52C304.991 130.76 304.983 131 304.967 131.24C304.951 131.464 304.927 131.656 304.895 131.816H295.247V130.064H303.407L302.879 130.64C302.879 129.376 302.591 128.432 302.015 127.808C301.439 127.168 300.655 126.848 299.663 126.848C298.975 126.848 298.343 127.016 297.767 127.352C297.207 127.672 296.759 128.152 296.423 128.792C296.087 129.416 295.919 130.192 295.919 131.12C295.919 132.08 296.103 132.88 296.471 133.52C296.855 134.144 297.367 134.616 298.007 134.936C298.663 135.256 299.415 135.416 300.263 135.416C300.919 135.416 301.519 135.328 302.063 135.152C302.607 134.96 303.143 134.704 303.671 134.384L304.511 135.896C303.919 136.296 303.239 136.632 302.471 136.904C301.703 137.16 300.863 137.288 299.951 137.288ZM308.534 141.8V125.264H310.478L310.67 126.704H310.742C311.27 126.208 311.878 125.8 312.566 125.48C313.254 125.144 313.95 124.976 314.654 124.976C315.694 124.976 316.566 125.224 317.27 125.72C317.99 126.216 318.534 126.912 318.902 127.808C319.286 128.704 319.478 129.752 319.478 130.952C319.478 132.296 319.23 133.44 318.734 134.384C318.238 135.328 317.59 136.048 316.79 136.544C315.99 137.04 315.126 137.288 314.198 137.288C313.67 137.288 313.102 137.16 312.494 136.904C311.902 136.648 311.358 136.296 310.862 135.848H310.79L310.91 137.96V141.8H308.534ZM313.742 135.32C314.366 135.32 314.926 135.152 315.422 134.816C315.918 134.48 316.31 133.992 316.598 133.352C316.886 132.696 317.03 131.904 317.03 130.976C317.03 130.16 316.918 129.456 316.694 128.864C316.486 128.256 316.166 127.792 315.734 127.472C315.302 127.136 314.726 126.968 314.006 126.968C313.526 126.968 313.022 127.096 312.494 127.352C311.966 127.592 311.438 127.992 310.91 128.552V134.096C311.406 134.528 311.91 134.84 312.422 135.032C312.934 135.224 313.374 135.32 313.742 135.32ZM330.485 137.288C329.189 137.288 328.197 136.912 327.509 136.16C326.821 135.392 326.477 134.304 326.477 132.896V121.904H322.565V119.984H328.853V133.04C328.853 133.856 329.061 134.448 329.477 134.816C329.893 135.168 330.413 135.344 331.037 135.344C331.357 135.344 331.685 135.304 332.021 135.224C332.373 135.144 332.757 135.016 333.173 134.84L333.749 136.616C333.189 136.808 332.669 136.968 332.189 137.096C331.725 137.224 331.157 137.288 330.485 137.288ZM342.403 137.288C341.379 137.288 340.419 137.048 339.523 136.568C338.643 136.088 337.923 135.392 337.363 134.48C336.819 133.552 336.547 132.44 336.547 131.144C336.547 129.848 336.819 128.744 337.363 127.832C337.923 126.904 338.643 126.2 339.523 125.72C340.419 125.224 341.379 124.976 342.403 124.976C343.427 124.976 344.379 125.224 345.259 125.72C346.155 126.2 346.875 126.904 347.419 127.832C347.979 128.744 348.259 129.848 348.259 131.144C348.259 132.44 347.979 133.552 347.419 134.48C346.875 135.392 346.155 136.088 345.259 136.568C344.379 137.048 343.427 137.288 342.403 137.288ZM342.403 135.344C343.091 135.344 343.691 135.168 344.203 134.816C344.715 134.464 345.107 133.976 345.379 133.352C345.667 132.728 345.811 131.992 345.811 131.144C345.811 130.312 345.667 129.584 345.379 128.96C345.107 128.32 344.715 127.824 344.203 127.472C343.691 127.12 343.091 126.944 342.403 126.944C341.715 126.944 341.115 127.12 340.603 127.472C340.091 127.824 339.691 128.32 339.403 128.96C339.131 129.584 338.995 130.312 338.995 131.144C338.995 131.992 339.131 132.728 339.403 133.352C339.691 133.976 340.091 134.464 340.603 134.816C341.115 135.168 341.715 135.344 342.403 135.344ZM352.81 141.92C352.522 141.92 352.234 141.896 351.946 141.848C351.658 141.8 351.41 141.744 351.202 141.68L351.682 139.832C351.826 139.88 351.986 139.92 352.162 139.952C352.338 139.984 352.514 140 352.69 140C353.474 140 354.106 139.784 354.586 139.352C355.066 138.92 355.442 138.384 355.714 137.744L356.026 136.928L350.674 125.264H353.05L355.69 131.384C355.898 131.912 356.114 132.472 356.338 133.064C356.578 133.64 356.818 134.224 357.058 134.816H357.154C357.346 134.256 357.546 133.68 357.754 133.088C357.962 132.48 358.162 131.912 358.354 131.384L360.682 125.264H362.938L357.922 137.744C357.618 138.576 357.242 139.304 356.794 139.928C356.346 140.552 355.794 141.04 355.138 141.392C354.498 141.744 353.722 141.92 352.81 141.92Z" fill="#F347E2"/>
<path d="M386.655 137.288C385.439 137.288 384.343 137.048 383.367 136.568C382.391 136.088 381.615 135.392 381.039 134.48C380.479 133.552 380.199 132.44 380.199 131.144C380.199 129.848 380.503 128.744 381.111 127.832C381.719 126.904 382.519 126.2 383.511 125.72C384.519 125.224 385.615 124.976 386.799 124.976C387.759 124.976 388.599 125.144 389.319 125.48C390.039 125.8 390.639 126.192 391.119 126.656L389.967 128.168C389.487 127.784 388.999 127.488 388.503 127.28C388.023 127.056 387.495 126.944 386.919 126.944C386.087 126.944 385.343 127.12 384.687 127.472C384.047 127.824 383.543 128.32 383.175 128.96C382.823 129.584 382.647 130.312 382.647 131.144C382.647 131.992 382.823 132.728 383.175 133.352C383.527 133.976 384.015 134.464 384.639 134.816C385.279 135.168 386.015 135.344 386.847 135.344C387.551 135.344 388.191 135.208 388.767 134.936C389.343 134.664 389.863 134.336 390.327 133.952L391.359 135.488C390.703 136.064 389.967 136.512 389.151 136.832C388.351 137.136 387.519 137.288 386.655 137.288ZM399.966 137.288C398.942 137.288 397.982 137.048 397.086 136.568C396.206 136.088 395.486 135.392 394.926 134.48C394.382 133.552 394.11 132.44 394.11 131.144C394.11 129.848 394.382 128.744 394.926 127.832C395.486 126.904 396.206 126.2 397.086 125.72C397.982 125.224 398.942 124.976 399.966 124.976C400.99 124.976 401.942 125.224 402.822 125.72C403.718 126.2 404.438 126.904 404.982 127.832C405.542 128.744 405.822 129.848 405.822 131.144C405.822 132.44 405.542 133.552 404.982 134.48C404.438 135.392 403.718 136.088 402.822 136.568C401.942 137.048 400.99 137.288 399.966 137.288ZM399.966 135.344C400.654 135.344 401.254 135.168 401.766 134.816C402.278 134.464 402.67 133.976 402.942 133.352C403.23 132.728 403.374 131.992 403.374 131.144C403.374 130.312 403.23 129.584 402.942 128.96C402.67 128.32 402.278 127.824 401.766 127.472C401.254 127.12 400.654 126.944 399.966 126.944C399.278 126.944 398.678 127.12 398.166 127.472C397.654 127.824 397.254 128.32 396.966 128.96C396.694 129.584 396.558 130.312 396.558 131.144C396.558 131.992 396.694 132.728 396.966 133.352C397.254 133.976 397.654 134.464 398.166 134.816C398.678 135.168 399.278 135.344 399.966 135.344ZM413.564 137.288C412.044 137.288 410.82 136.752 409.892 135.68C408.964 134.592 408.5 133.08 408.5 131.144C408.5 129.88 408.748 128.792 409.244 127.88C409.756 126.952 410.412 126.24 411.212 125.744C412.012 125.232 412.86 124.976 413.756 124.976C414.444 124.976 415.06 125.104 415.604 125.36C416.148 125.616 416.652 125.976 417.116 126.44H417.188L417.068 124.352V119.984H419.444V137H417.5L417.308 135.56H417.236C416.772 136.024 416.22 136.432 415.58 136.784C414.94 137.12 414.268 137.288 413.564 137.288ZM414.116 135.32C414.644 135.32 415.148 135.192 415.628 134.936C416.124 134.664 416.604 134.264 417.068 133.736V128.168C416.604 127.736 416.14 127.432 415.676 127.256C415.212 127.064 414.748 126.968 414.284 126.968C413.676 126.968 413.116 127.136 412.604 127.472C412.108 127.808 411.708 128.288 411.404 128.912C411.1 129.536 410.948 130.272 410.948 131.12C410.948 132.464 411.228 133.504 411.788 134.24C412.348 134.96 413.124 135.32 414.116 135.32ZM429.467 137.288C428.283 137.288 427.203 137.048 426.227 136.568C425.267 136.088 424.507 135.384 423.947 134.456C423.387 133.528 423.107 132.416 423.107 131.12C423.107 129.84 423.387 128.744 423.947 127.832C424.523 126.92 425.267 126.216 426.179 125.72C427.091 125.224 428.067 124.976 429.107 124.976C430.259 124.976 431.235 125.216 432.035 125.696C432.835 126.16 433.443 126.808 433.859 127.64C434.291 128.456 434.507 129.416 434.507 130.52C434.507 130.76 434.499 131 434.483 131.24C434.467 131.464 434.443 131.656 434.411 131.816H424.763V130.064H432.923L432.395 130.64C432.395 129.376 432.107 128.432 431.531 127.808C430.955 127.168 430.171 126.848 429.179 126.848C428.491 126.848 427.859 127.016 427.283 127.352C426.723 127.672 426.275 128.152 425.939 128.792C425.603 129.416 425.435 130.192 425.435 131.12C425.435 132.08 425.619 132.88 425.987 133.52C426.371 134.144 426.883 134.616 427.523 134.936C428.179 135.256 428.931 135.416 429.779 135.416C430.435 135.416 431.035 135.328 431.579 135.152C432.123 134.96 432.659 134.704 433.187 134.384L434.027 135.896C433.435 136.296 432.755 136.632 431.987 136.904C431.219 137.16 430.379 137.288 429.467 137.288ZM441.218 142.136L440.57 140.672C441.61 140.24 442.378 139.696 442.874 139.04C443.386 138.384 443.634 137.592 443.618 136.664L443.234 134.288L444.626 136.328C444.418 136.536 444.194 136.68 443.954 136.76C443.714 136.84 443.474 136.88 443.234 136.88C442.85 136.88 442.498 136.808 442.178 136.664C441.874 136.504 441.626 136.28 441.434 135.992C441.258 135.688 441.17 135.328 441.17 134.912C441.17 134.272 441.378 133.784 441.794 133.448C442.21 133.096 442.706 132.92 443.282 132.92C444.05 132.92 444.634 133.216 445.034 133.808C445.434 134.4 445.634 135.216 445.634 136.256C445.634 137.696 445.242 138.912 444.458 139.904C443.69 140.896 442.61 141.64 441.218 142.136ZM472.063 137.288C470.959 137.288 469.903 137.104 468.895 136.736C467.887 136.368 467.031 135.944 466.327 135.464L467.383 133.928C468.071 134.408 468.815 134.784 469.615 135.056C470.431 135.328 471.351 135.464 472.375 135.464C473.271 135.464 473.935 135.304 474.367 134.984C474.815 134.664 475.039 134.288 475.039 133.856C475.039 133.648 474.991 133.456 474.895 133.28C474.815 133.104 474.655 132.944 474.415 132.8C474.191 132.64 473.847 132.488 473.383 132.344C472.935 132.2 472.343 132.048 471.607 131.888C470.055 131.568 468.903 131.128 468.151 130.568C467.415 130.008 467.047 129.288 467.047 128.408C467.047 127.416 467.471 126.6 468.319 125.96C469.183 125.304 470.431 124.976 472.063 124.976C472.991 124.976 473.871 125.136 474.703 125.456C475.551 125.76 476.271 126.112 476.863 126.512L475.759 128C475.199 127.632 474.583 127.344 473.911 127.136C473.255 126.912 472.567 126.8 471.847 126.8C471.255 126.8 470.783 126.872 470.431 127.016C470.079 127.144 469.823 127.32 469.663 127.544C469.503 127.768 469.423 128.016 469.423 128.288C469.423 128.736 469.671 129.088 470.167 129.344C470.679 129.584 471.503 129.824 472.639 130.064C473.919 130.336 474.903 130.64 475.591 130.976C476.295 131.312 476.775 131.704 477.031 132.152C477.303 132.584 477.439 133.104 477.439 133.712C477.439 134.368 477.231 134.968 476.815 135.512C476.399 136.056 475.791 136.488 474.991 136.808C474.207 137.128 473.231 137.288 472.063 137.288ZM488.541 137.288C487.357 137.288 486.421 137.08 485.733 136.664C485.061 136.248 484.581 135.672 484.293 134.936C484.005 134.2 483.861 133.344 483.861 132.368V127.184H480.645V125.408L483.957 125.264L484.269 121.568H486.237V125.264H491.781V127.184H486.237V132.368C486.237 133.024 486.325 133.584 486.501 134.048C486.677 134.496 486.973 134.832 487.389 135.056C487.805 135.264 488.365 135.368 489.069 135.368C489.597 135.368 490.077 135.328 490.509 135.248C490.941 135.152 491.357 135.032 491.757 134.888L492.237 136.616C491.709 136.792 491.141 136.944 490.533 137.072C489.941 137.216 489.277 137.288 488.541 137.288ZM499.284 137.288C498.532 137.288 497.852 137.152 497.244 136.88C496.652 136.592 496.18 136.2 495.828 135.704C495.492 135.192 495.324 134.592 495.324 133.904C495.324 132.592 495.964 131.592 497.244 130.904C498.54 130.216 500.66 129.76 503.604 129.536C503.588 129.056 503.476 128.616 503.268 128.216C503.076 127.816 502.764 127.504 502.332 127.28C501.916 127.04 501.364 126.92 500.676 126.92C500.196 126.92 499.724 126.984 499.26 127.112C498.796 127.224 498.348 127.384 497.916 127.592C497.484 127.8 497.076 128.016 496.692 128.24L495.804 126.632C496.236 126.376 496.732 126.12 497.292 125.864C497.852 125.592 498.452 125.376 499.092 125.216C499.748 125.056 500.412 124.976 501.084 124.976C502.172 124.976 503.076 125.176 503.796 125.576C504.516 125.976 505.06 126.544 505.428 127.28C505.796 128.016 505.98 128.904 505.98 129.944V137H504.036L503.844 135.488H503.772C503.148 135.968 502.444 136.392 501.66 136.76C500.876 137.112 500.084 137.288 499.284 137.288ZM499.956 135.392C500.58 135.392 501.196 135.256 501.804 134.984C502.412 134.712 503.012 134.328 503.604 133.832V131.048C502.068 131.16 500.86 131.336 499.98 131.576C499.116 131.816 498.508 132.12 498.156 132.488C497.804 132.84 497.628 133.256 497.628 133.736C497.628 134.12 497.732 134.44 497.94 134.696C498.164 134.936 498.452 135.112 498.804 135.224C499.156 135.336 499.54 135.392 499.956 135.392ZM517.323 137.288C516.139 137.288 515.203 137.08 514.515 136.664C513.843 136.248 513.363 135.672 513.075 134.936C512.787 134.2 512.643 133.344 512.643 132.368V127.184H509.427V125.408L512.739 125.264L513.051 121.568H515.019V125.264H520.563V127.184H515.019V132.368C515.019 133.024 515.107 133.584 515.283 134.048C515.459 134.496 515.755 134.832 516.171 135.056C516.587 135.264 517.147 135.368 517.851 135.368C518.379 135.368 518.859 135.328 519.291 135.248C519.723 135.152 520.139 135.032 520.539 134.888L521.019 136.616C520.491 136.792 519.923 136.944 519.315 137.072C518.723 137.216 518.059 137.288 517.323 137.288ZM530.201 137.288C529.017 137.288 527.937 137.048 526.961 136.568C526.001 136.088 525.241 135.384 524.681 134.456C524.121 133.528 523.841 132.416 523.841 131.12C523.841 129.84 524.121 128.744 524.681 127.832C525.257 126.92 526.001 126.216 526.913 125.72C527.825 125.224 528.801 124.976 529.841 124.976C530.993 124.976 531.969 125.216 532.769 125.696C533.569 126.16 534.177 126.808 534.593 127.64C535.025 128.456 535.241 129.416 535.241 130.52C535.241 130.76 535.233 131 535.217 131.24C535.201 131.464 535.177 131.656 535.145 131.816H525.497V130.064H533.657L533.129 130.64C533.129 129.376 532.841 128.432 532.265 127.808C531.689 127.168 530.905 126.848 529.913 126.848C529.225 126.848 528.593 127.016 528.017 127.352C527.457 127.672 527.009 128.152 526.673 128.792C526.337 129.416 526.169 130.192 526.169 131.12C526.169 132.08 526.353 132.88 526.721 133.52C527.105 134.144 527.617 134.616 528.257 134.936C528.913 135.256 529.665 135.416 530.513 135.416C531.169 135.416 531.769 135.328 532.313 135.152C532.857 134.96 533.393 134.704 533.921 134.384L534.761 135.896C534.169 136.296 533.489 136.632 532.721 136.904C531.953 137.16 531.113 137.288 530.201 137.288Z" fill="#EAE6D8" fill-opacity="0.7"/>
<path d="M36.232 298.84L44.104 277.96H46.168L38.296 298.84H36.232ZM50.6226 298.84L58.4946 277.96H60.5586L52.6866 298.84H50.6226ZM87.6119 298.648C86.1079 298.648 84.9879 298.416 84.2519 297.952C83.5319 297.488 83.1719 296.632 83.1719 295.384C83.1719 294.808 83.1879 294.28 83.2199 293.8C83.2519 293.32 83.2839 292.848 83.3159 292.384C83.3639 291.92 83.3879 291.424 83.3879 290.896C83.3879 290.592 83.2919 290.304 83.0999 290.032C82.9239 289.744 82.5879 289.512 82.0919 289.336C81.5959 289.16 80.8839 289.064 79.9559 289.048V287.608C80.8839 287.592 81.5959 287.496 82.0919 287.32C82.5879 287.144 82.9239 286.912 83.0999 286.624C83.2919 286.336 83.3879 286.048 83.3879 285.76C83.3879 285.248 83.3639 284.76 83.3159 284.296C83.2839 283.816 83.2519 283.328 83.2199 282.832C83.1879 282.336 83.1719 281.816 83.1719 281.272C83.1719 280.008 83.5319 279.152 84.2519 278.704C84.9879 278.24 86.1079 278.008 87.6119 278.008H89.1719V279.328H87.9959C87.2279 279.328 86.6359 279.4 86.2199 279.544C85.8199 279.672 85.5399 279.888 85.3799 280.192C85.2359 280.48 85.1639 280.88 85.1639 281.392C85.1639 282.064 85.1879 282.752 85.2359 283.456C85.2839 284.16 85.3079 284.88 85.3079 285.616C85.3079 286.416 85.1399 287.024 84.8039 287.44C84.4839 287.856 83.8999 288.136 83.0519 288.28V288.376C83.8999 288.52 84.4839 288.8 84.8039 289.216C85.1399 289.632 85.3079 290.24 85.3079 291.04C85.3079 291.824 85.2839 292.552 85.2359 293.224C85.1879 293.88 85.1639 294.56 85.1639 295.264C85.1639 295.76 85.2359 296.16 85.3799 296.464C85.5399 296.768 85.8199 296.984 86.2199 297.112C86.6359 297.256 87.2279 297.328 87.9959 297.328H89.1719V298.648H87.6119ZM95.1385 286.84L94.4665 281.368L94.3945 278.536H97.4185L97.3465 281.368L96.6745 286.84H95.1385ZM100.851 286.84L100.179 281.368L100.107 278.536H103.131L103.059 281.368L102.387 286.84H100.851ZM111.713 295.288C110.337 295.288 109.321 294.88 108.665 294.064C108.025 293.248 107.705 292.072 107.705 290.536V283.264H110.081V290.224C110.081 291.264 110.265 292.032 110.633 292.528C111.017 293.008 111.649 293.248 112.529 293.248C113.153 293.248 113.713 293.096 114.209 292.792C114.705 292.488 115.241 291.992 115.817 291.304V283.264H118.193V295H116.249L116.057 293.056H115.961C115.385 293.712 114.753 294.248 114.065 294.664C113.393 295.08 112.609 295.288 111.713 295.288ZM127.688 295.288C126.584 295.288 125.528 295.104 124.52 294.736C123.512 294.368 122.656 293.944 121.952 293.464L123.008 291.928C123.696 292.408 124.44 292.784 125.24 293.056C126.056 293.328 126.976 293.464 128 293.464C128.896 293.464 129.56 293.304 129.992 292.984C130.44 292.664 130.664 292.288 130.664 291.856C130.664 291.648 130.616 291.456 130.52 291.28C130.44 291.104 130.28 290.944 130.04 290.8C129.816 290.64 129.472 290.488 129.008 290.344C128.56 290.2 127.968 290.048 127.232 289.888C125.68 289.568 124.528 289.128 123.776 288.568C123.04 288.008 122.672 287.288 122.672 286.408C122.672 285.416 123.096 284.6 123.944 283.96C124.808 283.304 126.056 282.976 127.688 282.976C128.616 282.976 129.496 283.136 130.328 283.456C131.176 283.76 131.896 284.112 132.488 284.512L131.384 286C130.824 285.632 130.208 285.344 129.536 285.136C128.88 284.912 128.192 284.8 127.472 284.8C126.88 284.8 126.408 284.872 126.056 285.016C125.704 285.144 125.448 285.32 125.288 285.544C125.128 285.768 125.048 286.016 125.048 286.288C125.048 286.736 125.296 287.088 125.792 287.344C126.304 287.584 127.128 287.824 128.264 288.064C129.544 288.336 130.528 288.64 131.216 288.976C131.92 289.312 132.4 289.704 132.656 290.152C132.928 290.584 133.064 291.104 133.064 291.712C133.064 292.368 132.856 292.968 132.44 293.512C132.024 294.056 131.416 294.488 130.616 294.808C129.832 295.128 128.856 295.288 127.688 295.288ZM142.654 295.288C141.47 295.288 140.39 295.048 139.414 294.568C138.454 294.088 137.694 293.384 137.134 292.456C136.574 291.528 136.294 290.416 136.294 289.12C136.294 287.84 136.574 286.744 137.134 285.832C137.71 284.92 138.454 284.216 139.366 283.72C140.278 283.224 141.254 282.976 142.294 282.976C143.446 282.976 144.422 283.216 145.222 283.696C146.022 284.16 146.63 284.808 147.046 285.64C147.478 286.456 147.694 287.416 147.694 288.52C147.694 288.76 147.686 289 147.67 289.24C147.654 289.464 147.63 289.656 147.598 289.816H137.95V288.064H146.11L145.582 288.64C145.582 287.376 145.294 286.432 144.718 285.808C144.142 285.168 143.358 284.848 142.366 284.848C141.678 284.848 141.046 285.016 140.47 285.352C139.91 285.672 139.462 286.152 139.126 286.792C138.79 287.416 138.622 288.192 138.622 289.12C138.622 290.08 138.806 290.88 139.174 291.52C139.558 292.144 140.07 292.616 140.71 292.936C141.366 293.256 142.118 293.416 142.966 293.416C143.622 293.416 144.222 293.328 144.766 293.152C145.31 292.96 145.846 292.704 146.374 292.384L147.214 293.896C146.622 294.296 145.942 294.632 145.174 294.904C144.406 295.16 143.566 295.288 142.654 295.288ZM152.437 295V283.264H154.405L154.597 286H154.669C155.277 285.04 156.021 284.296 156.901 283.768C157.781 283.24 158.741 282.976 159.781 282.976C160.229 282.976 160.637 283.016 161.005 283.096C161.373 283.176 161.733 283.296 162.085 283.456L161.557 285.496C161.157 285.352 160.813 285.256 160.525 285.208C160.237 285.144 159.869 285.112 159.421 285.112C158.573 285.112 157.757 285.352 156.973 285.832C156.189 286.312 155.469 287.144 154.813 288.328V295H152.437ZM170.86 295.288C169.756 295.288 168.7 295.104 167.692 294.736C166.684 294.368 165.828 293.944 165.124 293.464L166.18 291.928C166.868 292.408 167.612 292.784 168.412 293.056C169.228 293.328 170.148 293.464 171.172 293.464C172.068 293.464 172.732 293.304 173.164 292.984C173.612 292.664 173.836 292.288 173.836 291.856C173.836 291.648 173.788 291.456 173.692 291.28C173.612 291.104 173.452 290.944 173.212 290.8C172.988 290.64 172.644 290.488 172.18 290.344C171.732 290.2 171.14 290.048 170.404 289.888C168.852 289.568 167.7 289.128 166.948 288.568C166.212 288.008 165.844 287.288 165.844 286.408C165.844 285.416 166.268 284.6 167.116 283.96C167.98 283.304 169.228 282.976 170.86 282.976C171.788 282.976 172.668 283.136 173.5 283.456C174.348 283.76 175.068 284.112 175.66 284.512L174.556 286C173.996 285.632 173.38 285.344 172.708 285.136C172.052 284.912 171.364 284.8 170.644 284.8C170.052 284.8 169.58 284.872 169.228 285.016C168.876 285.144 168.62 285.32 168.46 285.544C168.3 285.768 168.22 286.016 168.22 286.288C168.22 286.736 168.468 287.088 168.964 287.344C169.476 287.584 170.3 287.824 171.436 288.064C172.716 288.336 173.7 288.64 174.388 288.976C175.092 289.312 175.572 289.704 175.828 290.152C176.1 290.584 176.236 291.104 176.236 291.712C176.236 292.368 176.028 292.968 175.612 293.512C175.196 294.056 174.588 294.488 173.788 294.808C173.004 295.128 172.028 295.288 170.86 295.288ZM181.482 286.84L180.81 281.368L180.738 278.536H183.762L183.69 281.368L183.018 286.84H181.482ZM187.194 286.84L186.522 281.368L186.45 278.536H189.474L189.402 281.368L188.73 286.84H187.194ZM199.497 286.912C198.889 286.912 198.377 286.704 197.961 286.288C197.545 285.872 197.337 285.336 197.337 284.68C197.337 284.024 197.545 283.488 197.961 283.072C198.377 282.656 198.889 282.448 199.497 282.448C200.121 282.448 200.633 282.656 201.033 283.072C201.449 283.488 201.657 284.024 201.657 284.68C201.657 285.336 201.449 285.872 201.033 286.288C200.633 286.704 200.121 286.912 199.497 286.912ZM199.497 295.288C198.889 295.288 198.377 295.08 197.961 294.664C197.545 294.248 197.337 293.712 197.337 293.056C197.337 292.4 197.545 291.864 197.961 291.448C198.377 291.032 198.889 290.824 199.497 290.824C200.121 290.824 200.633 291.032 201.033 291.448C201.449 291.864 201.657 292.4 201.657 293.056C201.657 293.712 201.449 294.248 201.033 294.664C200.633 295.08 200.121 295.288 199.497 295.288ZM226.334 298.648V278.008H233.078V279.328H228.182V297.328H233.078V298.648H226.334ZM245.909 298.648C244.405 298.648 243.285 298.416 242.549 297.952C241.829 297.488 241.469 296.632 241.469 295.384C241.469 294.808 241.485 294.28 241.517 293.8C241.549 293.32 241.581 292.848 241.613 292.384C241.661 291.92 241.685 291.424 241.685 290.896C241.685 290.592 241.589 290.304 241.397 290.032C241.221 289.744 240.885 289.512 240.389 289.336C239.893 289.16 239.181 289.064 238.253 289.048V287.608C239.181 287.592 239.893 287.496 240.389 287.32C240.885 287.144 241.221 286.912 241.397 286.624C241.589 286.336 241.685 286.048 241.685 285.76C241.685 285.248 241.661 284.76 241.613 284.296C241.581 283.816 241.549 283.328 241.517 282.832C241.485 282.336 241.469 281.816 241.469 281.272C241.469 280.008 241.829 279.152 242.549 278.704C243.285 278.24 244.405 278.008 245.909 278.008H247.469V279.328H246.293C245.525 279.328 244.933 279.4 244.517 279.544C244.117 279.672 243.837 279.888 243.677 280.192C243.533 280.48 243.461 280.88 243.461 281.392C243.461 282.064 243.485 282.752 243.533 283.456C243.581 284.16 243.605 284.88 243.605 285.616C243.605 286.416 243.437 287.024 243.101 287.44C242.781 287.856 242.197 288.136 241.349 288.28V288.376C242.197 288.52 242.781 288.8 243.101 289.216C243.437 289.632 243.605 290.24 243.605 291.04C243.605 291.824 243.581 292.552 243.533 293.224C243.485 293.88 243.461 294.56 243.461 295.264C243.461 295.76 243.533 296.16 243.677 296.464C243.837 296.768 244.117 296.984 244.517 297.112C244.933 297.256 245.525 297.328 246.293 297.328H247.469V298.648H245.909ZM266.362 295V283.264H268.306L268.498 285.16H268.594C269.186 284.552 269.826 284.04 270.514 283.624C271.202 283.192 272.002 282.976 272.914 282.976C274.274 282.976 275.274 283.392 275.914 284.224C276.57 285.04 276.898 286.208 276.898 287.728V295H274.522V288.04C274.522 287.016 274.33 286.264 273.946 285.784C273.578 285.288 272.954 285.04 272.074 285.04C271.45 285.04 270.89 285.2 270.394 285.52C269.898 285.824 269.346 286.288 268.738 286.912V295H266.362ZM284.425 295.288C283.673 295.288 282.993 295.152 282.385 294.88C281.793 294.592 281.321 294.2 280.969 293.704C280.633 293.192 280.465 292.592 280.465 291.904C280.465 290.592 281.105 289.592 282.385 288.904C283.681 288.216 285.801 287.76 288.745 287.536C288.729 287.056 288.617 286.616 288.409 286.216C288.217 285.816 287.905 285.504 287.473 285.28C287.057 285.04 286.505 284.92 285.817 284.92C285.337 284.92 284.865 284.984 284.401 285.112C283.937 285.224 283.489 285.384 283.057 285.592C282.625 285.8 282.217 286.016 281.833 286.24L280.945 284.632C281.377 284.376 281.873 284.12 282.433 283.864C282.993 283.592 283.593 283.376 284.233 283.216C284.889 283.056 285.553 282.976 286.225 282.976C287.313 282.976 288.217 283.176 288.937 283.576C289.657 283.976 290.201 284.544 290.569 285.28C290.937 286.016 291.121 286.904 291.121 287.944V295H289.177L288.985 293.488H288.913C288.289 293.968 287.585 294.392 286.801 294.76C286.017 295.112 285.225 295.288 284.425 295.288ZM285.097 293.392C285.721 293.392 286.337 293.256 286.945 292.984C287.553 292.712 288.153 292.328 288.745 291.832V289.048C287.209 289.16 286.001 289.336 285.121 289.576C284.257 289.816 283.649 290.12 283.297 290.488C282.945 290.84 282.769 291.256 282.769 291.736C282.769 292.12 282.873 292.44 283.081 292.696C283.305 292.936 283.593 293.112 283.945 293.224C284.297 293.336 284.681 293.392 285.097 293.392ZM294.279 295V283.264H296.151L296.343 284.8H296.391C296.679 284.272 297.023 283.84 297.423 283.504C297.823 283.152 298.359 282.976 299.031 282.976C299.591 282.976 300.055 283.144 300.423 283.48C300.791 283.816 301.047 284.32 301.191 284.992C301.511 284.384 301.871 283.896 302.271 283.528C302.687 283.16 303.231 282.976 303.903 282.976C304.735 282.976 305.375 283.296 305.823 283.936C306.287 284.576 306.519 285.48 306.519 286.648V295H304.191V286.816C304.191 285.616 303.831 285.016 303.111 285.016C302.759 285.016 302.463 285.152 302.223 285.424C301.983 285.696 301.719 286.104 301.431 286.648V295H299.367V286.816C299.367 286.224 299.279 285.776 299.103 285.472C298.943 285.168 298.679 285.016 298.311 285.016C297.959 285.016 297.647 285.152 297.375 285.424C297.119 285.696 296.863 286.104 296.607 286.648V295H294.279ZM315.342 295.288C314.158 295.288 313.078 295.048 312.102 294.568C311.142 294.088 310.382 293.384 309.822 292.456C309.262 291.528 308.982 290.416 308.982 289.12C308.982 287.84 309.262 286.744 309.822 285.832C310.398 284.92 311.142 284.216 312.054 283.72C312.966 283.224 313.942 282.976 314.982 282.976C316.134 282.976 317.11 283.216 317.91 283.696C318.71 284.16 319.318 284.808 319.734 285.64C320.166 286.456 320.382 287.416 320.382 288.52C320.382 288.76 320.374 289 320.358 289.24C320.342 289.464 320.318 289.656 320.286 289.816H310.638V288.064H318.798L318.27 288.64C318.27 287.376 317.982 286.432 317.406 285.808C316.83 285.168 316.046 284.848 315.054 284.848C314.366 284.848 313.734 285.016 313.158 285.352C312.598 285.672 312.15 286.152 311.814 286.792C311.478 287.416 311.31 288.192 311.31 289.12C311.31 290.08 311.494 290.88 311.862 291.52C312.246 292.144 312.758 292.616 313.398 292.936C314.054 293.256 314.806 293.416 315.654 293.416C316.31 293.416 316.91 293.328 317.454 293.152C317.998 292.96 318.534 292.704 319.062 292.384L319.902 293.896C319.31 294.296 318.63 294.632 317.862 294.904C317.094 295.16 316.254 295.288 315.342 295.288ZM329.013 286.912C328.405 286.912 327.893 286.704 327.477 286.288C327.061 285.872 326.853 285.336 326.853 284.68C326.853 284.024 327.061 283.488 327.477 283.072C327.893 282.656 328.405 282.448 329.013 282.448C329.637 282.448 330.149 282.656 330.549 283.072C330.965 283.488 331.173 284.024 331.173 284.68C331.173 285.336 330.965 285.872 330.549 286.288C330.149 286.704 329.637 286.912 329.013 286.912ZM329.013 295.288C328.405 295.288 327.893 295.08 327.477 294.664C327.061 294.248 326.853 293.712 326.853 293.056C326.853 292.4 327.061 291.864 327.477 291.448C327.893 291.032 328.405 290.824 329.013 290.824C329.637 290.824 330.149 291.032 330.549 291.448C330.965 291.864 331.173 292.4 331.173 293.056C331.173 293.712 330.965 294.248 330.549 294.664C330.149 295.08 329.637 295.288 329.013 295.288ZM357.026 286.84L356.354 281.368L356.282 278.536H359.306L359.234 281.368L358.562 286.84H357.026ZM373.432 295.288C372.456 295.288 371.544 295.112 370.696 294.76C369.864 294.392 369.128 293.864 368.488 293.176C367.864 292.472 367.368 291.616 367 290.608C366.648 289.6 366.472 288.456 366.472 287.176C366.472 285.464 366.784 284 367.408 282.784C368.032 281.552 368.88 280.616 369.952 279.976C371.024 279.32 372.248 278.992 373.624 278.992C374.584 278.992 375.44 279.192 376.192 279.592C376.944 279.976 377.56 280.424 378.04 280.936L376.696 282.448C376.296 282.016 375.84 281.68 375.328 281.44C374.832 281.2 374.264 281.08 373.624 281.08C372.696 281.08 371.88 281.328 371.176 281.824C370.472 282.304 369.92 282.992 369.52 283.888C369.136 284.784 368.944 285.856 368.944 287.104C368.944 288.352 369.136 289.432 369.52 290.344C369.92 291.256 370.472 291.96 371.176 292.456C371.896 292.952 372.728 293.2 373.672 293.2C374.36 293.2 374.976 293.056 375.52 292.768C376.064 292.464 376.568 292.056 377.032 291.544L378.376 293.008C377.768 293.728 377.056 294.288 376.24 294.688C375.424 295.088 374.488 295.288 373.432 295.288ZM389.047 295.288C387.751 295.288 386.759 294.912 386.071 294.16C385.383 293.392 385.039 292.304 385.039 290.896V279.904H381.127V277.984H387.415V291.04C387.415 291.856 387.623 292.448 388.039 292.816C388.455 293.168 388.975 293.344 389.599 293.344C389.919 293.344 390.247 293.304 390.583 293.224C390.935 293.144 391.319 293.016 391.735 292.84L392.311 294.616C391.751 294.808 391.231 294.968 390.751 295.096C390.287 295.224 389.719 295.288 389.047 295.288ZM399.55 295.288C398.798 295.288 398.118 295.152 397.51 294.88C396.918 294.592 396.446 294.2 396.094 293.704C395.758 293.192 395.59 292.592 395.59 291.904C395.59 290.592 396.23 289.592 397.51 288.904C398.806 288.216 400.926 287.76 403.87 287.536C403.854 287.056 403.742 286.616 403.534 286.216C403.342 285.816 403.03 285.504 402.598 285.28C402.182 285.04 401.63 284.92 400.942 284.92C400.462 284.92 399.99 284.984 399.526 285.112C399.062 285.224 398.614 285.384 398.182 285.592C397.75 285.8 397.342 286.016 396.958 286.24L396.07 284.632C396.502 284.376 396.998 284.12 397.558 283.864C398.118 283.592 398.718 283.376 399.358 283.216C400.014 283.056 400.678 282.976 401.35 282.976C402.438 282.976 403.342 283.176 404.062 283.576C404.782 283.976 405.326 284.544 405.694 285.28C406.062 286.016 406.246 286.904 406.246 287.944V295H404.302L404.11 293.488H404.038C403.414 293.968 402.71 294.392 401.926 294.76C401.142 295.112 400.35 295.288 399.55 295.288ZM400.222 293.392C400.846 293.392 401.462 293.256 402.07 292.984C402.678 292.712 403.278 292.328 403.87 291.832V289.048C402.334 289.16 401.126 289.336 400.246 289.576C399.382 289.816 398.774 290.12 398.422 290.488C398.07 290.84 397.894 291.256 397.894 291.736C397.894 292.12 397.998 292.44 398.206 292.696C398.43 292.936 398.718 293.112 399.07 293.224C399.422 293.336 399.806 293.392 400.222 293.392ZM411.468 295V283.264H413.436L413.628 286H413.7C414.308 285.04 415.052 284.296 415.932 283.768C416.812 283.24 417.772 282.976 418.812 282.976C419.26 282.976 419.668 283.016 420.036 283.096C420.404 283.176 420.764 283.296 421.116 283.456L420.588 285.496C420.188 285.352 419.844 285.256 419.556 285.208C419.268 285.144 418.9 285.112 418.452 285.112C417.604 285.112 416.788 285.352 416.004 285.832C415.22 286.312 414.5 287.144 413.844 288.328V295H411.468ZM424.899 295V277.984H427.275V289.072H427.371L433.155 283.264H435.819L427.275 291.88V295H424.899ZM433.779 295L429.483 289L430.899 287.488L436.395 295H433.779ZM453.488 295V279.28H455.912V286.792H455.984L462.08 279.28H464.792L455.912 290.176V295H453.488ZM462.656 295L458.096 286.6L459.536 284.728L465.344 295H462.656ZM473.639 295.288C472.455 295.288 471.375 295.048 470.399 294.568C469.439 294.088 468.679 293.384 468.119 292.456C467.559 291.528 467.279 290.416 467.279 289.12C467.279 287.84 467.559 286.744 468.119 285.832C468.695 284.92 469.439 284.216 470.351 283.72C471.263 283.224 472.239 282.976 473.279 282.976C474.431 282.976 475.407 283.216 476.207 283.696C477.007 284.16 477.615 284.808 478.031 285.64C478.463 286.456 478.679 287.416 478.679 288.52C478.679 288.76 478.671 289 478.655 289.24C478.639 289.464 478.615 289.656 478.583 289.816H468.935V288.064H477.095L476.567 288.64C476.567 287.376 476.279 286.432 475.703 285.808C475.127 285.168 474.343 284.848 473.351 284.848C472.663 284.848 472.031 285.016 471.455 285.352C470.895 285.672 470.447 286.152 470.111 286.792C469.775 287.416 469.607 288.192 469.607 289.12C469.607 290.08 469.791 290.88 470.159 291.52C470.543 292.144 471.055 292.616 471.695 292.936C472.351 293.256 473.103 293.416 473.951 293.416C474.607 293.416 475.207 293.328 475.751 293.152C476.295 292.96 476.831 292.704 477.359 292.384L478.199 293.896C477.607 294.296 476.927 294.632 476.159 294.904C475.391 295.16 474.551 295.288 473.639 295.288ZM482.221 295V283.264H484.165L484.357 285.16H484.453C485.045 284.552 485.685 284.04 486.373 283.624C487.061 283.192 487.861 282.976 488.773 282.976C490.133 282.976 491.133 283.392 491.773 284.224C492.429 285.04 492.757 286.208 492.757 287.728V295H490.381V288.04C490.381 287.016 490.189 286.264 489.805 285.784C489.437 285.288 488.813 285.04 487.933 285.04C487.309 285.04 486.749 285.2 486.253 285.52C485.757 285.824 485.205 286.288 484.597 286.912V295H482.221ZM503.932 295.288C502.748 295.288 501.812 295.08 501.124 294.664C500.452 294.248 499.972 293.672 499.684 292.936C499.396 292.2 499.252 291.344 499.252 290.368V285.184H496.036V283.408L499.348 283.264L499.66 279.568H501.628V283.264H507.172V285.184H501.628V290.368C501.628 291.024 501.716 291.584 501.892 292.048C502.068 292.496 502.364 292.832 502.78 293.056C503.196 293.264 503.756 293.368 504.46 293.368C504.988 293.368 505.468 293.328 505.9 293.248C506.332 293.152 506.748 293.032 507.148 292.888L507.628 294.616C507.1 294.792 506.532 294.944 505.924 295.072C505.332 295.216 504.668 295.288 503.932 295.288ZM515.323 286.84L514.651 281.368L514.579 278.536H517.603L517.531 281.368L516.859 286.84H515.323ZM525.681 298.648V297.328H526.857C527.641 297.328 528.233 297.256 528.633 297.112C529.049 296.984 529.329 296.768 529.473 296.464C529.633 296.16 529.713 295.76 529.713 295.264C529.713 294.56 529.689 293.88 529.641 293.224C529.593 292.552 529.569 291.824 529.569 291.04C529.569 290.24 529.729 289.632 530.049 289.216C530.385 288.8 530.969 288.52 531.801 288.376V288.28C530.969 288.136 530.385 287.856 530.049 287.44C529.729 287.024 529.569 286.416 529.569 285.616C529.569 284.88 529.593 284.16 529.641 283.456C529.689 282.752 529.713 282.064 529.713 281.392C529.713 280.88 529.633 280.48 529.473 280.192C529.329 279.888 529.049 279.672 528.633 279.544C528.233 279.4 527.641 279.328 526.857 279.328H525.681V278.008H527.241C528.761 278.008 529.881 278.24 530.601 278.704C531.321 279.152 531.681 280.008 531.681 281.272C531.681 281.816 531.665 282.336 531.633 282.832C531.601 283.328 531.561 283.816 531.513 284.296C531.481 284.76 531.465 285.248 531.465 285.76C531.465 286.048 531.553 286.336 531.729 286.624C531.921 286.912 532.265 287.144 532.761 287.32C533.257 287.496 533.969 287.592 534.897 287.608V289.048C533.969 289.064 533.257 289.16 532.761 289.336C532.265 289.512 531.921 289.744 531.729 290.032C531.553 290.304 531.465 290.592 531.465 290.896C531.465 291.424 531.481 291.92 531.513 292.384C531.561 292.848 531.601 293.32 531.633 293.8C531.665 294.28 531.681 294.808 531.681 295.384C531.681 296.632 531.321 297.488 530.601 297.952C529.881 298.416 528.761 298.648 527.241 298.648H525.681ZM540.072 298.648V297.328H544.968V279.328H540.072V278.008H546.816V298.648H540.072ZM554.463 298.648V297.328H555.639C556.423 297.328 557.015 297.256 557.415 297.112C557.831 296.984 558.111 296.768 558.255 296.464C558.415 296.16 558.495 295.76 558.495 295.264C558.495 294.56 558.471 293.88 558.423 293.224C558.375 292.552 558.351 291.824 558.351 291.04C558.351 290.24 558.511 289.632 558.831 289.216C559.167 288.8 559.751 288.52 560.583 288.376V288.28C559.751 288.136 559.167 287.856 558.831 287.44C558.511 287.024 558.351 286.416 558.351 285.616C558.351 284.88 558.375 284.16 558.423 283.456C558.471 282.752 558.495 282.064 558.495 281.392C558.495 280.88 558.415 280.48 558.255 280.192C558.111 279.888 557.831 279.672 557.415 279.544C557.015 279.4 556.423 279.328 555.639 279.328H554.463V278.008H556.023C557.543 278.008 558.663 278.24 559.383 278.704C560.103 279.152 560.463 280.008 560.463 281.272C560.463 281.816 560.447 282.336 560.415 282.832C560.383 283.328 560.343 283.816 560.295 284.296C560.263 284.76 560.247 285.248 560.247 285.76C560.247 286.048 560.335 286.336 560.511 286.624C560.703 286.912 561.047 287.144 561.543 287.32C562.039 287.496 562.751 287.592 563.679 287.608V289.048C562.751 289.064 562.039 289.16 561.543 289.336C561.047 289.512 560.703 289.744 560.511 290.032C560.335 290.304 560.247 290.592 560.247 290.896C560.247 291.424 560.263 291.92 560.295 292.384C560.343 292.848 560.383 293.32 560.415 293.8C560.447 294.28 560.463 294.808 560.463 295.384C560.463 296.632 560.103 297.488 559.383 297.952C558.663 298.416 557.543 298.648 556.023 298.648H554.463Z" fill="#B1B1B1" fill-opacity="0.53"/>
<rect x="1.04439" y="1.04439" width="601.911" height="384.911" rx="19.8435" stroke="#131920" stroke-width="2.08879"/>
</svg>
