<svg width="165" height="173" viewBox="0 0 165 173" fill="none" xmlns="http://www.w3.org/2000/svg">
<path d="M58.293 55.424L81.461 41.28V14.144L58.293 0L35.125 14.144V41.28L58.293 55.424ZM58.293 51.52L38.325 39.36V16.064L58.293 3.904L78.261 16.064V39.36L58.293 51.52ZM89.856 30.784H110.08V34.88H89.856V30.784ZM141.543 55.424L164.711 41.28V14.144L141.543 0L118.375 14.144V41.28L141.543 55.424ZM141.543 51.52L121.575 39.36V16.064L141.543 3.904L161.511 16.064V39.36L141.543 51.52ZM55.285 60.248L58.421 61.464L32.181 114.2L29.109 112.92L55.285 60.248ZM23.168 172.424L46.336 158.28V131.144L23.168 117L0 131.144V158.28L23.168 172.424ZM23.168 168.52L3.2 156.36V133.064L23.168 120.904L43.136 133.064V156.36L23.168 168.52Z" fill="white"/>
</svg>
