<?xml version="1.0" encoding="UTF-8" standalone="no"?>
<!-- Created with Inkscape (http://www.inkscape.org/) -->

<svg
   width="171.44078mm"
   height="139.12mm"
   viewBox="0 0 171.44078 139.11999"
   version="1.1"
   id="svg1"
   xml:space="preserve"
   xmlns:xlink="http://www.w3.org/1999/xlink"
   xmlns="http://www.w3.org/2000/svg"
   xmlns:svg="http://www.w3.org/2000/svg"><defs
     id="defs1"><linearGradient
       id="linearGradient347"><stop
         style="stop-color:#491a1a;stop-opacity:1;"
         offset="0.9196142"
         id="stop348" /><stop
         style="stop-color:#dc173c;stop-opacity:1;"
         offset="0.9196142"
         id="stop349" /></linearGradient><linearGradient
       id="linearGradient48"><stop
         style="stop-color:#7bed11;stop-opacity:1;"
         offset="0"
         id="stop48" /><stop
         style="stop-color:#42bc47;stop-opacity:1;"
         offset="0.03627692"
         id="stop58" /><stop
         style="stop-color:#359638;stop-opacity:1;"
         offset="0.15269321"
         id="stop341" /><stop
         style="stop-color:#359638;stop-opacity:1;"
         offset="0.7404834"
         id="stop342" /><stop
         style="stop-color:#42bc47;stop-opacity:1;"
         offset="0.81672019"
         id="stop49" /></linearGradient><linearGradient
       id="linearGradient46"><stop
         style="stop-color:#7bed11;stop-opacity:1;"
         offset="0"
         id="stop46" /><stop
         style="stop-color:#42bc47;stop-opacity:1;"
         offset="1"
         id="stop47" /></linearGradient><linearGradient
       id="linearGradient44"><stop
         style="stop-color:#000000;stop-opacity:1;"
         offset="0"
         id="stop43" /><stop
         style="stop-color:#46d750;stop-opacity:1;"
         offset="1"
         id="stop44" /></linearGradient><linearGradient
       id="linearGradient31"><stop
         style="stop-color:#000000;stop-opacity:1;"
         offset="0"
         id="stop36" /><stop
         style="stop-color:#ea3355;stop-opacity:1;"
         offset="1"
         id="stop37" /></linearGradient><linearGradient
       id="linearGradient31-1"><stop
         style="stop-color:#000000;stop-opacity:1;"
         offset="0"
         id="stop31" /><stop
         style="stop-color:#236d47;stop-opacity:1;"
         offset="1"
         id="stop32" /></linearGradient><linearGradient
       xlink:href="#linearGradient46"
       id="linearGradient47"
       x1="479.31415"
       y1="513.48645"
       x2="619.9328"
       y2="411.97165"
       gradientUnits="userSpaceOnUse" /><linearGradient
       xlink:href="#linearGradient48"
       id="linearGradient49"
       x1="517.12244"
       y1="570.5874"
       x2="1092.9121"
       y2="328.71628"
       gradientUnits="userSpaceOnUse" /><radialGradient
       xlink:href="#linearGradient347"
       id="radialGradient349"
       cx="944.54504"
       cy="718.10797"
       fx="944.54504"
       fy="718.10797"
       r="400.612"
       gradientTransform="matrix(-0.71799855,-0.25213443,0.40573727,-1.1554108,1205.0303,1645.2986)"
       gradientUnits="userSpaceOnUse" /></defs><g
     id="layer2"
     transform="translate(-21.98446,-71.406858)"><path
       style="fill:#42bc47;fill-opacity:1;stroke-width:0.264583"
       d="m 193.11672,108.56936 c -0.002,-0.25412 -0.685,-1.65935 -2.97214,-2.56981 -13.56839,-5.4013 -57.57861,-25.198169 -75.29994,-32.342559 -4.64805,-1.87387 -7.2091,-2.26267 -7.15711,-2.134725 L 103.45774,72.55888 76.946714,83.605562 106.46976,95.900847 77.016857,107.50588 106.99893,121.0565 78.179834,133.67025 49.643278,120.59917 78.083459,107.50588 49.324815,95.443518 C 40.0406,100.81864 19.405858,106.90119 22.719336,109.10871 c -0.731801,0.97753 48.534131,21.64721 79.470914,34.62201 1.61315,0.67655 4.00236,0.97823 5.50141,1.61108 0.89362,-0.38498 2.12394,-0.26393 2.96419,-0.62401 24.80177,-10.62864 27.19027,-11.452 79.02454,-33.8078 1.10224,-0.47539 2.04365,-0.98482 3.43633,-2.34063 z"
       id="path32" /><path
       style="fill:#d21539;fill-opacity:1;stroke-width:0.264583"
       d="m 43.832049,127.24502 -10.157587,3.8739 -9.11,4.39232 c -1.736733,-0.22628 -1.695526,0.77832 -2.114821,1.46411 -0.273967,0.94118 0.467333,1.43113 1.13875,1.95214 l 5.69375,2.2775 17.243927,7.64589 28.30607,12.20089 30.420892,12.85161 2.2775,0.16268 4.555,-0.65072 2.76553,-1.30143 70.76517,-30.58356 7.15786,-3.25357 0.16268,-1.62679 -1.46411,-1.46411 -19.6841,-8.13393 -58.23893,24.88982 -2.76553,1.13875 h -1.95214 l -2.76554,0.16268 -2.2775,-0.81339 -2.76554,-0.81339 z"
       id="path7" /><path
       style="fill:#25ab2e;fill-opacity:1;stroke-width:0.264583"
       d="m 43.88,155.10294 -10.157587,3.8739 -9.11,4.39232 c -1.736733,-0.22628 -1.695526,0.77832 -2.114821,1.46411 -0.273967,0.94118 0.467333,1.43113 1.13875,1.95214 l 5.69375,2.2775 17.243927,7.64589 28.30607,12.20089 30.420891,12.85161 2.2775,0.16268 4.555,-0.65072 2.76553,-1.30143 70.76517,-30.58356 7.15786,-3.25357 0.16268,-1.62679 -1.46411,-1.46411 -19.6841,-8.13393 -58.23893,24.88982 -2.76553,1.13875 h -1.95214 l -2.76554,0.16268 -2.2775,-0.81339 -2.76554,-0.81339 z"
       id="path7-6" /><path
       style="fill:#284637;fill-opacity:1;stroke-width:0.264583"
       d="m 107.68142,182.18535 c -0.0589,6.9556 0.0778,-0.34511 -0.033,19.70125 l 4.32349,-0.65072 2.76553,-1.30143 70.76517,-30.58356 7.15786,-3.25357 0.16268,-1.62679 -1.46411,-1.46411 -19.6841,-8.13393 c -20.51468,10.76171 -51.74305,13.45572 -63.99349,27.31286 z"
       id="path7-4" /><path
       style="fill:#7bed11;fill-opacity:1;stroke-width:0.264583"
       d="M 107.02328,95.924983 77.799622,83.543967 49.300979,95.813442 78.072955,107.50867 48.018263,120.74278 78.9708,133.79304 108.02715,121.35626 78.077509,107.51079 Z"
       id="path34" /><path
       style="mix-blend-mode:normal;fill:#7bed11;fill-opacity:1;stroke:#000000;stroke-width:0.264583;stroke-opacity:1"
       d="m 107.86513,153.23129 0.0117,-7.94124 -3.01362,-0.48342 -82.506102,-35.35976 0.09354,7.76418 1.777343,1.59025 80.354589,34.33077 z"
       id="path36" /><path
       style="mix-blend-mode:normal;fill:#ea3355;fill-opacity:1;stroke:#000000;stroke-width:0.264583;stroke-opacity:1"
       d="m 107.79677,182.10143 0.0117,-7.94124 -3.01362,-0.48342 -82.506109,-35.35976 0.09354,7.76418 1.777343,1.59025 80.354596,34.33077 z"
       id="path36-8" /><path
       style="mix-blend-mode:normal;fill:#365a47;fill-opacity:1;stroke:#000000;stroke-width:0.264583;stroke-opacity:1"
       d="m 108.05201,210.08028 0.0117,-7.94124 -3.01362,-0.48342 -82.623036,-35.42992 -0.07016,7.55371 1.216077,1.47332 81.196489,34.72833 z"
       id="path36-8-9" /><path
       style="fill:#359638;fill-opacity:1;stroke-width:0.264583"
       d="m 107.71849,153.3095 0.0165,-8.06979 5.37221,-1.17927 79.93933,-34.65905 -0.0646,8.04352 c -8.63348,4.72256 -54.31807,23.47963 -81.47711,35.21944 z"
       id="path35" /><path
       style="fill:#592020;fill-opacity:1;stroke-width:0.264583"
       d="m 107.66785,182.21732 0.0165,-8.06979 5.37221,-1.17927 79.96826,-34.61357 -0.0935,7.99804 c -8.63348,4.72256 -54.31807,23.47963 -81.4771,35.21944 z"
       id="path35-8" /><path
       style="fill:#365a47;fill-opacity:1;stroke-width:0.264583"
       d="m 107.75842,210.08427 0.0165,-8.06979 5.37221,-1.17927 79.96825,-34.61357 -0.0935,7.99804 c -8.63348,4.72256 -54.31807,23.47963 -81.47709,35.21944 z"
       id="path35-8-3" /></g><g
     id="layer1"
     style="mix-blend-mode:normal"
     transform="translate(-21.98446,-71.406858)"><g
       id="strokes"
       transform="matrix(0.21397349,0,0,0.21397349,-2.4093344,32.414295)"
       style="fill:none;fill-opacity:1;stroke:#000000;stroke-opacity:1"><path
         fill="none"
         stroke-width="3"
         stroke-linecap="butt"
         stroke-opacity="1"
         stroke="#000000"
         stroke-linejoin="round"
         d="m 819.259,574.839 9.188,3.947 9.188,3.947 9.188,3.947 9.188,3.947 9.188,3.947 9.189,3.947 9.188,3.947 9.188,3.947 9.188,3.947 3.26,1.4 6.303,4.052 2.213,4.78 -2.213,4.779 -6.303,4.052 -9.188,3.947 -9.188,3.947 -9.188,3.947 -9.188,3.947 -9.188,3.947 -9.188,3.947 -9.188,3.947 -9.188,3.947 -9.188,3.947 -9.189,3.947 -9.188,3.947 -9.188,3.947 -9.188,3.947 -9.188,3.947 -9.188,3.947 -9.188,3.947 -9.188,3.947 -9.188,3.947 -9.189,3.947 -9.188,3.947 -9.188,3.947 -9.188,3.947 -9.188,3.947 -9.188,3.947 -9.188,3.947 -9.188,3.947 -9.188,3.946 -9.188,3.947 -9.189,3.948 -9.188,3.947 -9.188,3.946 -9.188,3.947 -9.188,3.947 -9.188,3.947 -9.188,3.947 -9.188,3.947 -9.188,3.947 -9.188,3.947 -9.189,3.947 -11.702,5.028 -9.432,2.707 -9.964,0.851 -1.162,0.1 -9.964,-0.852 -1.162,-0.099 -9.432,-2.707 -9.188,-3.947 -9.188,-3.947 -9.188,-3.947 -9.188,-3.947 -9.188,-3.947 -9.189,-3.947 -9.188,-3.947 -9.188,-3.947 -9.188,-3.947 -9.188,-3.947 -9.188,-3.947 -9.188,-3.947 -9.188,-3.947 -9.188,-3.947 -9.188,-3.947 -9.189,-3.947 -9.188,-3.947 -9.188,-3.947 -9.188,-3.947 -9.188,-3.947 -9.188,-3.947 -9.188,-3.947 -9.188,-3.947 -9.188,-3.947 -9.188,-3.947 -9.189,-3.947 -9.188,-3.947 -9.188,-3.947 -9.188,-3.947 -9.188,-3.947 -9.188,-3.947 -9.188,-3.947 -9.188,-3.947 -9.188,-3.947 -9.189,-3.947 -9.188,-3.947 -9.188,-3.947 -9.188,-3.947 -9.188,-3.947 -11.703,-5.027 -6.302,-4.052 -2.213,-4.779 2.213,-4.78 6.302,-4.052 9.188,-3.947 9.188,-3.947 9.188,-3.947 9.189,-3.947 9.188,-3.947 9.188,-3.947 9.188,-3.947 9.188,-3.947 9.188,-3.947 3.261,-1.4"
         id="path1"
         style="fill:none;fill-opacity:1;stroke:#365a47;stroke-opacity:1" /><path
         fill="none"
         stroke-width="3"
         stroke-linecap="butt"
         stroke-opacity="1"
         stroke="#000000"
         stroke-linejoin="round"
         d="m 115.504,620.594 v 10 10 10 8.863 l 2.213,4.779 6.302,4.052 9.188,3.947 9.188,3.947 9.188,3.947 9.189,3.947 9.188,3.947 9.188,3.947 9.188,3.947 9.188,3.947 9.188,3.947 9.188,3.947 9.188,3.947 9.188,3.947 9.188,3.947 9.189,3.947 9.188,3.947 9.188,3.947 9.188,3.947 9.188,3.947 9.188,3.947 9.188,3.947 9.188,3.947 9.188,3.947 9.188,3.947 9.189,3.947 9.188,3.947 9.188,3.947 9.188,3.947 9.188,3.947 9.188,3.947 9.188,3.947 9.188,3.947 9.188,3.947 9.188,3.947 9.189,3.947 9.188,3.947 9.188,3.947 9.188,3.947 9.188,3.947 9.188,3.947 11.703,5.027 9.432,2.707 9.964,0.852 1.162,0.099 9.963,-0.851 1.163,-0.1 9.432,-2.707 9.188,-3.947 9.188,-3.947 9.188,-3.947 9.188,-3.947 9.188,-3.947 9.188,-3.947 9.188,-3.947 9.188,-3.947 9.188,-3.947 9.189,-3.947 9.188,-3.947 9.188,-3.947 9.188,-3.947 9.188,-3.947 9.188,-3.947 9.188,-3.947 9.188,-3.947 9.188,-3.947 9.188,-3.947 9.189,-3.947 9.188,-3.947 9.188,-3.947 9.188,-3.947 9.188,-3.947 9.188,-3.947 9.188,-3.947 9.188,-3.947 9.188,-3.947 9.188,-3.947 9.189,-3.947 9.188,-3.947 9.188,-3.947 9.188,-3.947 9.188,-3.947 9.188,-3.947 9.188,-3.947 9.188,-3.947 9.188,-3.947 9.189,-3.947 11.702,-5.027 6.303,-4.052 2.213,-4.779 v -10 -10 -10 -8.863"
         id="path2"
         style="fill:none;fill-opacity:1;stroke:#23392d;stroke-opacity:1" /><path
         fill="none"
         stroke-width="3"
         stroke-linecap="butt"
         stroke-opacity="1"
         stroke="#000000"
         stroke-linejoin="round"
         d="m 115.504,490.221 v 10 m 0,0 v 10 m 0,0 v 10 m 0,0 v 8.863 m -0.11592,-0.57962 2.32892,5.35862 m -0.50234,-0.63758 6.80434,4.68958 m -0.25117,-0.15457 9.43917,4.10157 m 0,0 9.188,3.947 m 0,0 9.188,3.947 m 0,0 9.189,3.947 m 0,0 9.188,3.947 m 0,0 9.188,3.947 m 0,0 9.188,3.947 m 0,0 9.188,3.947 m 0,0 9.188,3.947 m 0,0 3.261,1.401 m 0,0 9.188,3.947 m 0,0 9.188,3.947 m 0,0 9.188,3.947 m 0,0 9.188,3.947 m 0,0 8.482,3.643 m 0,0 9.188,3.947 m 0,0 9.188,3.947 m 0,0 9.188,3.947 m 0,0 9.188,3.947 m 0,0 9.188,3.947 m 0,0 9.188,3.947 m 0,0 9.189,3.947 m 0,0 9.188,3.947 m 0,0 9.188,3.947 m 0,0 9.188,3.947 m 0,0 9.188,3.947 m 0,0 9.188,3.947 m 0,0 9.188,3.947 m 0,0 9.188,3.947 m 0,0 9.188,3.947 m 0,0 9.188,3.947 m 0,0 9.189,3.947 m 0,0 9.188,3.947 m 0,0 9.188,3.947 m 0,0 9.188,3.947 m 0,0 9.188,3.947 m 0,0 9.188,3.947 m 0,0 9.188,3.947 m 0,0 9.188,3.947 m 0,0 9.188,3.947 m 0,0 9.149,3.93 m -0.27324,-0.0547 9.70524,2.76265 m -0.43718,-0.0546 c 3.84959,0.28367 7.3312,0.75132 11.54877,0.851 l -0.33337,-0.0202 10.31077,-0.67711 1.163,-0.099 9.432,-2.708 9.188,-3.947 9.188,-3.947 9.188,-3.947 9.188,-3.947 9.188,-3.947 9.188,-3.947 9.188,-3.947 9.188,-3.947 9.188,-3.947 9.189,-3.947 9.188,-3.947 9.188,-3.947 9.188,-3.947 9.188,-3.947 9.188,-3.947 9.188,-3.947 9.188,-3.947 9.188,-3.947 9.188,-3.947 9.189,-3.947 9.188,-3.947 9.188,-3.947 9.188,-3.947 9.188,-3.947 9.188,-3.947 9.149,-3.93 9.188,-3.947 9.188,-3.947 9.188,-3.947 9.188,-3.947 8.482,-3.643 9.188,-3.947 9.188,-3.947 9.188,-3.947 9.188,-3.947 9.188,-3.947 9.189,-3.947 9.188,-3.947 9.188,-3.947 9.188,-3.947 3.26,-1.401 6.303,-4.052 2.213,-4.779 v -10 -10 -10 -8.863"
         id="path4"
         style="fill:none;fill-opacity:1;stroke:url(#radialGradient349);stroke-opacity:1" /><path
         fill="none"
         stroke-width="3"
         stroke-linecap="butt"
         stroke-opacity="1"
         stroke="#000000"
         stroke-linejoin="round"
         d="m 910.73179,356.63947 0.0308,3.97919 -4.78557,2.51799 -9.95306,4.82135 -9.188,3.947 -9.188,3.947 -9.188,3.947 -9.188,3.947 -9.188,3.947 -9.188,3.947 -9.188,3.947 -9.188,3.947 -9.189,3.947 -9.188,3.947 -9.188,3.947 -5.646,2.425 -9.188,3.947 -9.188,3.947 -2.342,1.006 -9.188,3.947 -9.188,3.947 -9.188,3.947 -9.188,3.947 -9.188,3.947 -9.188,3.947 -9.189,3.947 -9.188,3.947 -9.188,3.947 -9.188,3.947 -9.188,3.947 -9.188,3.947 -5.485,2.357 -9.188,3.947 -9.188,3.947 -9.189,3.947 -8.438,3.625 -9.188,3.947 -9.189,3.947 -9.188,3.947 -9.188,3.947 -9.188,3.947 -9.188,3.947 -9.188,3.947 -9.188,3.947 -8.167,3.508 -9.432,2.707 -9.964,0.852 -1.162,0.099 -9.964,-0.851 -1.162,-0.1 -9.432,-2.707 -9.188,-3.947 -9.188,-3.947 -9.188,-3.947 -9.188,-3.947 -9.188,-3.947 -9.189,-3.947 -9.188,-3.947 -9.188,-3.947 -8.167,-3.508 -9.188,-3.947 -9.188,-3.947 -9.188,-3.947 -8.439,-3.625 c 0,0 -6.12533,-2.63133 -9.188,-3.947 m 0,0 c -3.06267,-1.31567 -6.12533,-2.63133 -9.188,-3.947 m 0,0 c -3.06267,-1.31567 -9.188,-3.947 -9.188,-3.947 m 0,0 -9.189,-3.947 m 0,0 -9.188,-3.947 m 0,0 -9.188,-3.947 m 0,0 -9.188,-3.947 m 0,0 -9.188,-3.947 m 0,0 -9.188,-3.947 m 0,0 -9.188,-3.947 m 0,0 -9.188,-3.947 m 0,0 -9.188,-3.947 m 0,0 -5.486,-2.357 m 0,0 -9.188,-3.947 m 0,0 -9.188,-3.947 m 0,0 -4.114,-1.767 m 0,0 -9.188,-3.947 -9.188,-3.947 -9.188,-3.947 -9.188,-3.947 -9.189,-3.947 -9.188,-3.947 -9.188,-3.947 -9.188,-3.947 -9.188,-3.947 -9.188,-3.947 -9.188,-3.947 -9.188,-3.947 -3.874,-1.664 -8.00222,-4.90211"
         id="path6"
         style="mix-blend-mode:normal;fill:none;fill-opacity:1;stroke:url(#linearGradient47);stroke-opacity:1" /><path
         fill="none"
         stroke-width="3"
         stroke-linecap="butt"
         stroke-opacity="1"
         stroke="#000000"
         stroke-linejoin="round"
         d="m 813.825,442.132 9.188,3.947 9.189,3.947 9.188,3.947 9.188,3.947 9.188,3.947 9.188,3.947 9.188,3.947 9.188,3.947 9.188,3.947 8.694,3.735 6.303,4.051 2.213,4.78 -2.213,4.779 -6.303,4.052 -9.188,3.947 -9.188,3.947 -9.188,3.947 -9.188,3.947 -9.188,3.947 -9.188,3.947 -9.188,3.947 -9.188,3.947 -9.188,3.947 -9.189,3.947 -9.188,3.947 -9.188,3.947 -9.188,3.947 -9.188,3.947 -2.554,1.097 -9.188,3.947 -9.189,3.947 -9.188,3.947 -9.188,3.947 -9.188,3.947 -9.188,3.947 -9.188,3.947 -9.188,3.947 -9.188,3.947 -9.188,3.947 -9.188,3.947 -9.188,3.947 -9.189,3.947 -9.188,3.947 -9.188,3.947 -9.188,3.947 -9.188,3.947 -9.188,3.947 -9.188,3.947 -9.188,3.947 -9.188,3.947 -9.189,3.947 -9.188,3.947 -9.188,3.947 -9.188,3.947 -9.148,3.93 -9.432,2.707 -9.964,0.852 -1.162,0.099 -9.964,-0.851 -1.162,-0.1 -9.432,-2.707 -9.188,-3.947 -9.188,-3.947 -9.188,-3.947 -9.188,-3.947 -9.188,-3.947 -9.189,-3.947 -9.188,-3.947 -9.188,-3.947 -9.188,-3.947 -9.188,-3.947 -9.188,-3.947 -9.188,-3.947 -9.188,-3.947 -9.188,-3.947 -9.188,-3.947 -9.189,-3.947 -9.188,-3.947 -9.188,-3.947 -9.188,-3.947 -9.188,-3.947 -9.188,-3.947 -9.188,-3.947 -9.188,-3.947 -9.188,-3.947 -9.189,-3.947 -9.148,-3.93 -9.188,-3.947 -9.188,-3.947 -9.188,-3.947 -9.189,-3.947 -9.188,-3.947 -9.188,-3.947 -9.188,-3.947 -9.188,-3.947 -9.188,-3.947 -9.188,-3.947 -9.188,-3.947 -9.188,-3.947 -9.188,-3.947 -9.189,-3.947 -2.554,-1.097 -6.302,-4.052 -2.213,-4.779 2.213,-4.78 6.302,-4.051 9.188,-3.947 9.188,-3.947 9.188,-3.947 9.189,-3.947 9.188,-3.947 9.188,-3.947 9.188,-3.947 9.188,-3.947 9.188,-3.947 8.694,-3.735"
         id="path3"
         style="mix-blend-mode:normal;fill:none;fill-opacity:1;stroke:#ea3355;stroke-opacity:1" /><path
         fill="none"
         stroke-width="3"
         stroke-linecap="butt"
         stroke-opacity="1"
         stroke="#000000"
         stroke-linejoin="round"
         d="m 649.304,236.417 -9.188,-3.947 -9.188,-3.947 -9.188,-3.947 -9.188,-3.947 -9.188,-3.947 -9.188,-3.947 -9.188,-3.947 -9.189,-3.947 -9.188,-3.947 -9.188,-3.947 -9.188,-3.947 -9.188,-3.947 -3.873,-1.664 -9.432,-2.708 -9.964,-0.851 -1.162,-0.099 -9.964,0.851 -1.162,0.099 -9.432,2.708 -9.188,3.947 -9.188,3.947 -9.188,3.947 -9.188,3.947 -9.188,3.947 -9.189,3.947 -9.188,3.947 -9.188,3.947 -9.188,3.947 -9.188,3.947 -9.188,3.947 -9.188,3.947 -5.646,2.425 -9.188,3.947 -9.188,3.947 -9.188,3.947 -9.188,3.947 -9.188,3.947 -9.189,3.947 -9.188,3.947 -9.188,3.947 -9.188,3.947 -9.188,3.947 -9.188,3.947 -9.188,3.947 -9.188,3.947 -9.188,3.947 -7.828,3.362 -9.188,3.947 -9.188,3.947 -9.188,3.947 -9.188,3.947 -9.188,3.947 -9.188,3.947 -9.188,3.947 -9.188,3.947 -9.189,3.947 -9.188,3.947 -9.188,3.947 -9.188,3.947 -7.418,3.187 -6.302,4.052 -2.213,4.779 v 10 10 10 8.863 l 2.213,4.779 6.302,4.052 9.188,3.947 9.188,3.947 9.188,3.947 9.189,3.947 9.188,3.947 9.188,3.947 9.188,3.947 9.188,3.947 9.188,3.947 8.694,3.735 9.188,3.947 9.188,3.947 4.368,1.876 9.188,3.947 9.188,3.947 4.114,1.768 9.189,3.946 9.188,3.948 9.188,3.946 9.188,3.948 9.188,3.947 9.188,3.946 9.188,3.948 9.188,3.946 9.188,3.947 9.188,3.948 9.189,3.946 5.442,2.338 9.231,3.966 9.188,3.947 9.188,3.947 9.188,3.947 8.439,3.625 9.188,3.947 9.188,3.947 9.188,3.947 9.188,3.947 9.188,3.947 9.188,3.947 9.189,3.947 9.188,3.947 8.167,3.508 9.432,2.708 9.964,0.851 1.162,0.099 9.963,-0.851 1.163,-0.099 9.432,-2.708 9.188,-3.947 9.188,-3.947 9.188,-3.947 9.188,-3.947 9.188,-3.947 9.188,-3.947 9.188,-3.947 9.188,-3.947 8.168,-3.508 9.188,-3.947 9.188,-3.947 9.188,-3.947 9.188,-3.947 8.482,-3.644 9.188,-3.947 9.188,-3.947 9.188,-3.947 9.188,-3.947 9.188,-3.947 8.629,-3.706 9.188,-3.947 9.188,-3.947 9.188,-3.947 9.188,-3.947 9.188,-3.947 6.002,-2.578 9.188,-3.947 9.188,-3.947 9.188,-3.947 9.189,-3.947 8.481,-3.644 7.384,-3.172 9.188,-3.947 9.189,-3.947 9.188,-3.947 9.188,-3.947 9.188,-3.947 9.188,-3.947 9.188,-3.947 9.188,-3.947 9.188,-3.947 1.31,-0.563 6.303,-4.052 2.213,-4.779 v -10 -10 -10 -8.863 l -2.213,-4.779 -6.303,-4.052 -9.188,-3.947 -9.188,-3.947 -9.188,-3.947 -9.188,-3.947 -9.188,-3.947 -9.188,-3.947 -9.188,-3.947 -9.188,-3.947 -9.188,-3.947 -9.189,-3.947 -9.188,-3.947 -9.188,-3.947 -7.418,-3.187 -9.188,-3.947 -9.188,-3.947 -9.188,-3.947 -9.188,-3.947 -9.188,-3.947 -9.188,-3.947 -9.188,-3.947 -9.189,-3.947 -9.188,-3.947 -9.188,-3.947 -9.188,-3.947 -9.188,-3.947 -9.188,-3.947 -9.188,-3.947 -9.6,-4.123"
         id="path5"
         style="fill:none;fill-opacity:1;stroke:url(#linearGradient49);stroke-width:3.00037;stroke-dasharray:none;stroke-opacity:1" /></g></g></svg>
